<?xml version="1.0" encoding="UTF-8"?>
<svg width="640" height="480" xmlns="http://www.w3.org/2000/svg" xmlns:xlink="http://www.w3.org/1999/xlink">
 <!-- Created with SVG-edit - http://svg-edit.googlecode.com/ -->
 <defs>
  <svg id="svg_1" viewBox="0 0 419.334 192.667" height="192.667pt" width="419.334pt" xmlns:xlink="http://www.w3.org/1999/xlink">
   <g id="surface1">
    <g fill="rgb(22.3526%,68.235779%,90.98053%)">
     <use y="129.8482" x="48.7578" xlink:href="#glyph0-1"/>
     <use y="129.8482" x="57.3258" xlink:href="#glyph0-2"/>
     <use y="129.8482" x="67.1058" xlink:href="#glyph0-3"/>
     <use y="129.8482" x="74.5938" xlink:href="#glyph0-4"/>
     <use y="129.8482" x="78.6618" xlink:href="#glyph0-5"/>
     <use y="129.8482" x="88.7778" xlink:href="#glyph0-6"/>
     <use y="129.8482" x="96.9018" xlink:href="#glyph0-3"/>
     <use y="129.8482" x="104.3898" xlink:href="#glyph0-3"/>
    </g>
    <g fill="rgb(22.3526%,68.235779%,90.98053%)">
     <use y="129.8482" x="111.8778" xlink:href="#glyph0-7"/>
     <use y="129.8482" x="114.6618" xlink:href="#glyph0-8"/>
    </g>
    <g fill="rgb(22.3526%,68.235779%,90.98053%)">
     <use y="144.2482" x="48.7578" xlink:href="#glyph0-9"/>
    </g>
    <g fill="rgb(22.3526%,68.235779%,90.98053%)">
     <use y="144.2482" x="57.0234" xlink:href="#glyph0-10"/>
     <use y="144.2482" x="66.6234" xlink:href="#glyph0-11"/>
     <use y="144.2482" x="77.5074" xlink:href="#glyph0-11"/>
     <use y="144.2482" x="88.3914" xlink:href="#glyph0-2"/>
     <use y="144.2482" x="97.2234" xlink:href="#glyph0-5"/>
     <use y="144.2482" x="106.3914" xlink:href="#glyph0-4"/>
     <use y="144.2482" x="109.5114" xlink:href="#glyph0-12"/>
     <use y="144.2482" x="116.5314" xlink:href="#glyph0-13"/>
    </g>
    <path fill-rule="nonzero" fill="rgb(22.3526%,68.235779%,90.98053%)" d="m288.300781,93.035156c0,-2.003906 -0.265625,-3.808594 -0.808594,-5.40625c-0.542969,-1.601563 -1.316406,-2.945313 -2.324219,-4.046875c-1.011719,-1.097649 -2.238281,-1.941399 -3.671875,-2.53125c-1.441406,-0.589844 -3.054688,-0.882813 -4.847656,-0.882813l-7.492188,0l0,25.734375l7.492188,0c1.792969,0 3.40625,-0.292961 4.847656,-0.875c1.433594,-0.582031 2.660156,-1.425781 3.671875,-2.53125c1.007813,-1.105461 1.78125,-2.453125 2.324219,-4.046875c0.542969,-1.589836 0.808594,-3.394531 0.808594,-5.414063m5.792969,0c0,2.582031 -0.421875,4.945313 -1.261719,7.085938c-0.839844,2.140625 -2.019531,3.976563 -3.546875,5.511719c-1.527344,1.53907 -3.363281,2.72657 -5.503906,3.578125c-2.136719,0.847656 -4.515625,1.269531 -7.132813,1.269531l-13.183594,0l0,-34.894531l13.183594,0c2.617188,0 4.996094,0.421875 7.132813,1.269531c2.140625,0.851563 3.976563,2.042969 5.503906,3.578125c1.527344,1.53125 2.707031,3.371094 3.546875,5.511719c0.839844,2.140625 1.261719,4.503906 1.261719,7.089844"/>
    <path fill-rule="nonzero" fill="rgb(22.3526%,68.235779%,90.98053%)" d="m303.80899,90.343803c0.777008,-1.566505 1.71402,-2.800804 2.81601,-3.695404c1.093994,-0.898399 2.414001,-1.343697 3.945007,-1.343697c0.531982,0 1.035004,0.058594 1.503998,0.179695c0.468994,0.121101 0.886993,0.304703 1.261993,0.5429l-0.363007,3.929703c-0.066986,0.273499 -0.167999,0.464897 -0.304993,0.570297c-0.136993,0.101601 -0.31601,0.156303 -0.546997,0.156303c-0.242004,0 -0.585999,-0.046898 -1.039001,-0.132805c-0.453003,-0.089897 -0.929993,-0.132797 -1.429993,-0.132797c-0.730011,0 -1.367004,0.1054 -1.929016,0.3125c-0.554993,0.210899 -1.05899,0.519501 -1.503998,0.921799c-0.437988,0.402405 -0.835999,0.8946 -1.171997,1.476601c-0.339996,0.582001 -0.652008,1.246101 -0.945007,1.988304l0,15.362801l-5.210999,0l0,-24.7183l3.031006,0c0.546997,0 0.925995,0.101593 1.140015,0.304695c0.207977,0.203102 0.35199,0.554703 0.43399,1.054703l0.312988,3.222702zm0,0"/>
    <path fill-rule="nonzero" fill="rgb(22.3526%,68.235779%,90.98053%)" d="m337.617004,85.761703l0,24.7183l-3.152008,0c-0.695007,0 -1.140991,-0.332001 -1.332001,-0.992004l-0.386993,-2.299995c-0.519012,0.545998 -1.06601,1.045998 -1.636993,1.5c-0.570007,0.452995 -1.183014,0.838997 -1.832001,1.163994c-0.644012,0.32 -1.335999,0.57 -2.070007,0.75c-0.738007,0.175003 -1.52301,0.269005 -2.363007,0.269005c-1.355988,0 -2.550995,-0.226006 -3.582001,-0.68c-1.039001,-0.453003 -1.906982,-1.089005 -2.609985,-1.914001c-0.699005,-0.823997 -1.230011,-1.816002 -1.585999,-2.968002c-0.359009,-1.156998 -0.535004,-2.43 -0.535004,-3.817001l0,-15.730293l5.210999,0l0,15.730293c0,1.664001 0.386993,2.953003 1.148987,3.875c0.77301,0.922005 1.94101,1.383003 3.503998,1.383003c1.14801,0 2.218018,-0.262001 3.210022,-0.789001c0.992981,-0.522995 1.929993,-1.25 2.800995,-2.167999l0,-18.031296l5.210999,0zm0,0"/>
    <path fill-rule="nonzero" fill="rgb(22.3526%,68.235779%,90.98053%)" d="m349.171997,104.277c0.726013,0.937996 1.52301,1.594002 2.386993,1.976997c0.863007,0.379005 1.824005,0.57 2.871002,0.57c2.035004,0 3.625,-0.745995 4.761017,-2.229996c1.140991,-1.488998 1.710999,-3.699005 1.710999,-6.6409c0,-1.519501 -0.128998,-2.816399 -0.390015,-3.890602c-0.257996,-1.074203 -0.628998,-1.949203 -1.109985,-2.628899c-0.488007,-0.675804 -1.078003,-1.171898 -1.77301,-1.476601c-0.69101,-0.308601 -1.47699,-0.460899 -2.35199,-0.460899c-1.324005,0 -2.468018,0.285095 -3.425018,0.859398c-0.960999,0.574203 -1.855988,1.390602 -2.679993,2.460899l0,11.460602zm-0.269989,-14.9254c1.03598,-1.214897 2.210999,-2.191399 3.527985,-2.933601c1.31601,-0.742203 2.847015,-1.113297 4.593018,-1.113297c1.390991,0 2.648987,0.277298 3.781982,0.835899c1.132996,0.554695 2.097015,1.367195 2.906006,2.433601c0.80899,1.066399 1.437012,2.386696 1.878998,3.960999c0.445007,1.574196 0.664001,3.382797 0.664001,5.4179c0,1.824196 -0.242004,3.526901 -0.734009,5.101898c-0.492981,1.573997 -1.199982,2.941002 -2.121979,4.093002c-0.921021,1.156998 -2.039001,2.062996 -3.347015,2.714996c-1.304993,0.653 -2.785004,0.981003 -4.43399,0.981003c-1.453003,0 -2.683014,-0.235001 -3.695007,-0.703003c-1.011993,-0.469002 -1.925995,-1.113998 -2.75,-1.937996l0,10.491997l-5.210999,0l0,-32.933296l3.152008,0c0.710999,0 1.160004,0.3321 1.359985,0.996094l0.429016,2.593803zm0,0"/>
    <path fill-rule="nonzero" fill="rgb(22.3526%,68.235779%,90.98053%)" d="m384.527008,99.675797c-1.855011,0.058601 -3.421997,0.210907 -4.699005,0.445206c-1.277008,0.234001 -2.308014,0.534996 -3.101013,0.898994c-0.792999,0.363007 -1.359985,0.792 -1.707001,1.292c-0.347992,0.504005 -0.519989,1.055 -0.519989,1.653c0,0.578003 0.089996,1.074005 0.27301,1.488007c0.187988,0.409996 0.445984,0.75 0.777985,1.015999c0.332001,0.268997 0.718994,0.460999 1.164001,0.582001c0.445007,0.125 0.929993,0.182999 1.468994,0.182999c1.355011,0 2.52301,-0.257004 3.496002,-0.764999c0.980011,-0.508003 1.929016,-1.246002 2.847015,-2.215004l0,-4.578201zm-13.812012,-10.472694c2.796997,-2.601501 6.125,-3.898399 9.988007,-3.898399c1.421997,0 2.68399,0.230499 3.792999,0.6875c1.105988,0.460899 2.035004,1.109398 2.785004,1.953094c0.75,0.839905 1.320984,1.835899 1.718994,2.992203c0.394989,1.156303 0.593994,2.4375 0.593994,3.839798l0,15.702705l-2.324005,0c-0.5,0 -0.882996,-0.074005 -1.140991,-0.230003c-0.257996,-0.152 -0.47699,-0.460999 -0.652008,-0.933998l-0.511993,-2.011002c-0.628998,0.566002 -1.25,1.073997 -1.863007,1.514999c-0.617981,0.445999 -1.25,0.820999 -1.902985,1.128998c-0.652008,0.305 -1.359009,0.535004 -2.109009,0.692001c-0.75,0.152 -1.578003,0.230003 -2.484985,0.230003c-1.003021,0 -1.933014,-0.140999 -2.796021,-0.414001c-0.867981,-0.273003 -1.613983,-0.691002 -2.246979,-1.246002c-0.624023,-0.558998 -1.124023,-1.25 -1.488007,-2.073997c-0.363007,-0.825005 -0.542999,-1.792999 -0.542999,-2.906998c0,-0.957001 0.253998,-1.882004 0.761993,-2.789001c0.507996,-0.902 1.347992,-1.714401 2.519012,-2.433205c1.171997,-0.718697 2.714996,-1.3125 4.628998,-1.785095c1.917999,-0.464905 4.277985,-0.730499 7.085999,-0.796906l0,-1.648499c0,-1.777298 -0.378998,-3.101501 -1.136017,-3.972595c-0.757996,-0.871101 -1.875,-1.308601 -3.339996,-1.308601c-1.003998,0 -1.843994,0.125 -2.523987,0.375c-0.679016,0.25 -1.269012,0.519501 -1.769012,0.8125c-0.5,0.289101 -0.945984,0.558601 -1.332001,0.808601c-0.386993,0.253899 -0.796997,0.378899 -1.238007,0.378899c-0.35199,0 -0.656982,-0.093803 -0.906982,-0.277298c-0.25,-0.187607 -0.457001,-0.418007 -0.617004,-0.695404l-0.949005,-1.695297zm0,0"/>
    <path fill-rule="nonzero" fill="rgb(22.3526%,68.235779%,90.98053%)" d="m400.984009,110.480003l-5.210999,0l0,-35.862801l5.210999,0l0,35.862801zm0,0"/>
    <path fill-rule="nonzero" fill="rgb(22.3526%,68.235779%,90.98053%)" d="m266.093994,126.433998c0.289001,0 0.535004,-0.035995 0.746002,-0.101997c0.207001,-0.066002 0.382996,-0.160004 0.515015,-0.277c0.132996,-0.121002 0.230988,-0.265999 0.292999,-0.43c0.062988,-0.164001 0.093994,-0.348 0.093994,-0.546997c0,-0.387001 -0.136993,-0.691002 -0.410004,-0.914001c-0.277008,-0.225998 -0.687012,-0.340004 -1.238007,-0.340004l-1.621002,0l0,2.610001l1.621002,0zm-1.621002,-5.882996l0,2.554001l1.33902,0c0.28598,0 0.531982,-0.031006 0.742981,-0.093002c0.210999,-0.063004 0.386017,-0.149002 0.52301,-0.262001c0.136993,-0.109001 0.238007,-0.246002 0.304993,-0.405998c0.06601,-0.155998 0.101013,-0.328003 0.101013,-0.520004c0,-0.440994 -0.132019,-0.764999 -0.39801,-0.968994c-0.265991,-0.203003 -0.675995,-0.304001 -1.234009,-0.304001l-1.378998,0zm1.378998,-0.797005c0.460022,0 0.855011,0.042999 1.187012,0.137001c0.332001,0.089005 0.609009,0.218002 0.824005,0.382004c0.210999,0.167999 0.371002,0.375 0.468994,0.617996c0.10199,0.237999 0.152008,0.511002 0.152008,0.816002c0,0.183998 -0.027008,0.359001 -0.085999,0.527c-0.054016,0.171997 -0.144012,0.327995 -0.257019,0.473c-0.113983,0.148003 -0.261993,0.277 -0.437988,0.394997c-0.175995,0.117004 -0.382996,0.209999 -0.617004,0.285004c0.550995,0.104996 0.960999,0.301003 1.238007,0.589996c0.277985,0.285004 0.417999,0.664001 0.417999,1.128006c0,0.316994 -0.058014,0.605995 -0.175995,0.867996c-0.117004,0.261002 -0.289001,0.484001 -0.511017,0.671997c-0.22699,0.191002 -0.5,0.335007 -0.828003,0.437004c-0.328979,0.101997 -0.699982,0.152 -1.117981,0.152l-2.644012,0l0,-7.480003l2.386993,0zm0,0"/>
    <path fill-rule="nonzero" fill="rgb(22.3526%,68.235779%,90.98053%)" d="m274.097656,126.433594c0.3125,0 0.585938,-0.054688 0.832031,-0.160156c0.242188,-0.101555 0.449219,-0.25 0.617188,-0.4375c0.167969,-0.1875 0.296875,-0.410156 0.386719,-0.671875c0.089844,-0.261719 0.132813,-0.550781 0.132813,-0.863281l0,-4.546875l1.007813,0l0,4.546875c0,0.433601 -0.070313,0.832031 -0.207031,1.203125c-0.136719,0.367188 -0.332031,0.6875 -0.589844,0.957031c-0.253906,0.269531 -0.566406,0.480469 -0.9375,0.632813c-0.367188,0.15625 -0.78125,0.230469 -1.242188,0.230469c-0.460938,0 -0.875,-0.074219 -1.242188,-0.230469c-0.367188,-0.152344 -0.683594,-0.363281 -0.941406,-0.632813c-0.253906,-0.269531 -0.453125,-0.589844 -0.589844,-0.957031c-0.136719,-0.371094 -0.207031,-0.769524 -0.207031,-1.203125l0,-4.546875l1.007813,0l0,4.542976c0,0.3125 0.042969,0.597649 0.132813,0.859367c0.089844,0.261719 0.214844,0.488281 0.386719,0.675781c0.167969,0.1875 0.375,0.335938 0.621094,0.441406c0.246094,0.105469 0.523438,0.160156 0.832031,0.160156"/>
    <path fill-rule="nonzero" fill="rgb(22.3526%,68.235779%,90.98053%)" d="m283.714996,120.921997l-0.105988,0.117004l-0.132019,0.039001l-0.207001,-0.086006c-0.078979,-0.061996 -0.179993,-0.125 -0.300995,-0.198997c-0.121002,-0.07 -0.265991,-0.137001 -0.43399,-0.195c-0.167999,-0.058998 -0.375,-0.089996 -0.613007,-0.089996c-0.22699,0 -0.425995,0.030998 -0.597992,0.093994c-0.171997,0.062004 -0.31601,0.144005 -0.433014,0.246002c-0.117981,0.105003 -0.203003,0.230003 -0.265991,0.371002c-0.05899,0.139999 -0.085999,0.292999 -0.085999,0.457001c0,0.207001 0.050995,0.378998 0.152008,0.518997c0.10199,0.137001 0.238983,0.253998 0.41098,0.351997c0.167999,0.098 0.359009,0.183006 0.574005,0.254005c0.214996,0.07 0.433014,0.143997 0.656006,0.222c0.22699,0.074997 0.445007,0.160995 0.656006,0.257996c0.214996,0.094002 0.406982,0.215004 0.578003,0.363998c0.167999,0.144005 0.300995,0.324005 0.406982,0.535004c0.101013,0.214996 0.152008,0.475998 0.152008,0.784996c0,0.328003 -0.054993,0.633003 -0.167999,0.922005c-0.109009,0.284996 -0.27301,0.534996 -0.484009,0.75c-0.214996,0.210999 -0.480988,0.378998 -0.789001,0.5c-0.312988,0.121002 -0.667999,0.182999 -1.066986,0.182999c-0.484009,0 -0.925995,-0.089996 -1.324005,-0.264999c-0.394989,-0.176003 -0.738007,-0.414001 -1.019989,-0.710999l0.292999,-0.481003l0.10199,-0.097l0.132996,-0.039001l0.152008,0.054001l0.199005,0.140999c0.074982,0.055 0.156982,0.117004 0.25,0.18c0.093994,0.066002 0.203003,0.128006 0.320984,0.183006c0.121002,0.054993 0.257019,0.101997 0.410004,0.140999c0.152008,0.034996 0.324005,0.054001 0.515015,0.054001c0.242981,0 0.457001,-0.035004 0.644989,-0.101006c0.187012,-0.067001 0.347992,-0.159996 0.47699,-0.277c0.132019,-0.121994 0.230011,-0.265999 0.300018,-0.43c0.070984,-0.167999 0.105988,-0.355995 0.105988,-0.562996c0,-0.225998 -0.050995,-0.410004 -0.152985,-0.554001c-0.105011,-0.144997 -0.242004,-0.265999 -0.406006,-0.363998c-0.167999,-0.097 -0.359009,-0.179001 -0.574005,-0.246002c-0.218994,-0.07 -0.43399,-0.139999 -0.656006,-0.210999c-0.22699,-0.07 -0.445984,-0.152 -0.660004,-0.246002c-0.214996,-0.097 -0.41098,-0.218002 -0.574982,-0.366997c-0.167999,-0.148003 -0.300018,-0.335999 -0.406006,-0.562004c-0.101013,-0.223 -0.152008,-0.5 -0.152008,-0.832001c0,-0.265999 0.050995,-0.519997 0.152008,-0.765999c0.105988,-0.25 0.253998,-0.469002 0.449005,-0.659996c0.199982,-0.192001 0.441986,-0.344002 0.72699,-0.461006c0.285004,-0.112999 0.617004,-0.171997 0.988007,-0.171997c0.417999,0 0.796997,0.066002 1.144989,0.198997c0.339996,0.133003 0.640015,0.324005 0.902008,0.574005l-0.242004,0.480995zm0,0"/>
    <path fill-rule="nonzero" fill="rgb(22.3526%,68.235779%,90.98053%)" d="m287.55899,127.234001l-1.015991,0l0,-7.480003l1.015991,0l0,7.480003zm0,0"/>
    <path fill-rule="nonzero" fill="rgb(22.3526%,68.235779%,90.98053%)" d="m296.52301,119.753998l0,7.484001l-0.507019,0l-0.199982,-0.042999l-0.160004,-0.139999l-4.328003,-5.640999l0.015991,0.253998l0.003998,0.237999l0,5.332001l-0.886993,0l0,-7.484001l0.519012,0l0.117981,0.008003l0.082001,0.023003l0.074005,0.054993l0.078003,0.086006l4.332001,5.632996c-0.007996,-0.089996 -0.015991,-0.175995 -0.02301,-0.262001l-0.007996,-0.241997l0,-5.301003l0.890015,0zm0,0"/>
    <path fill-rule="nonzero" fill="rgb(22.3526%,68.235779%,90.98053%)" d="m304.042999,126.410004l-0.003998,0.823997l-4.613007,0l0,-7.480003l4.613007,0l0,0.824005l-3.597992,0l0,2.483994l2.914001,0l0,0.793007l-2.914001,0l0,2.555l3.60199,0zm0,0"/>
    <path fill-rule="nonzero" fill="rgb(22.3526%,68.235779%,90.98053%)" d="m310.281006,120.921997l-0.105011,0.117004l-0.132996,0.039001l-0.207001,-0.086006c-0.082001,-0.061996 -0.179993,-0.125 -0.300995,-0.198997c-0.121002,-0.07 -0.265015,-0.137001 -0.433014,-0.195c-0.167999,-0.058998 -0.375,-0.089996 -0.613983,-0.089996c-0.226013,0 -0.425995,0.030998 -0.597015,0.093994c-0.175995,0.062004 -0.316986,0.144005 -0.43399,0.246002c-0.117004,0.105003 -0.207001,0.230003 -0.265991,0.371002c-0.058014,0.139999 -0.08902,0.292999 -0.08902,0.457001c0,0.207001 0.054016,0.378998 0.156006,0.518997c0.101013,0.137001 0.238007,0.253998 0.406006,0.351997c0.171997,0.098 0.359009,0.183006 0.578003,0.254005c0.210999,0.07 0.429993,0.143997 0.656006,0.222c0.222992,0.074997 0.445984,0.160995 0.656982,0.257996c0.214996,0.094002 0.406006,0.215004 0.574005,0.363998c0.171997,0.144005 0.304993,0.324005 0.410004,0.535004c0.10199,0.214996 0.152008,0.475998 0.152008,0.784996c0,0.328003 -0.054016,0.633003 -0.167999,0.922005c-0.109009,0.284996 -0.27301,0.534996 -0.488007,0.75c-0.214996,0.210999 -0.476013,0.378998 -0.789001,0.5c-0.312012,0.121002 -0.664001,0.182999 -1.062012,0.182999c-0.484985,0 -0.925995,-0.089996 -1.324982,-0.264999c-0.39801,-0.176003 -0.738007,-0.414001 -1.019012,-0.710999l0.292999,-0.481003l0.101013,-0.097l0.132996,-0.039001l0.152985,0.054001l0.199005,0.140999c0.074005,0.055 0.156006,0.117004 0.25,0.18c0.093018,0.066002 0.199005,0.128006 0.320007,0.183006c0.121002,0.054993 0.257996,0.101997 0.410004,0.140999c0.152985,0.034996 0.324005,0.054001 0.515991,0.054001c0.242004,0 0.457001,-0.035004 0.644012,-0.101006c0.187988,-0.067001 0.347992,-0.159996 0.47699,-0.277c0.132996,-0.121994 0.230011,-0.265999 0.300995,-0.43c0.070007,-0.167999 0.105011,-0.355995 0.105011,-0.562996c0,-0.225998 -0.054016,-0.410004 -0.156006,-0.554001c-0.10199,-0.144997 -0.238007,-0.265999 -0.402008,-0.363998c-0.167999,-0.097 -0.359985,-0.179001 -0.578979,-0.246002c-0.21402,-0.07 -0.433014,-0.139999 -0.656006,-0.210999c-0.222015,-0.07 -0.44101,-0.152 -0.656006,-0.246002c-0.214996,-0.097 -0.410004,-0.218002 -0.574005,-0.366997c-0.167999,-0.148003 -0.304993,-0.335999 -0.406982,-0.562004c-0.101013,-0.223 -0.152008,-0.5 -0.152008,-0.832001c0,-0.265999 0.050995,-0.519997 0.152008,-0.765999c0.10199,-0.25 0.25,-0.469002 0.449982,-0.659996c0.195007,-0.192001 0.437012,-0.344002 0.726013,-0.461006c0.285004,-0.112999 0.617004,-0.171997 0.988983,-0.171997c0.417999,0 0.796021,0.066002 1.140015,0.198997c0.343994,0.133003 0.644989,0.324005 0.906006,0.574005l-0.242004,0.480995zm0,0"/>
    <path fill-rule="nonzero" fill="rgb(22.3526%,68.235779%,90.98053%)" d="m316.937988,120.921997l-0.10199,0.117004l-0.132996,0.039001l-0.207001,-0.086006c-0.082001,-0.061996 -0.18399,-0.125 -0.300995,-0.198997c-0.121002,-0.07 -0.265015,-0.137001 -0.437012,-0.195c-0.167999,-0.058998 -0.371002,-0.089996 -0.609985,-0.089996c-0.230011,0 -0.429016,0.030998 -0.601013,0.093994c-0.171997,0.062004 -0.316986,0.144005 -0.429993,0.246002c-0.117004,0.105003 -0.207001,0.230003 -0.265015,0.371002c-0.05899,0.139999 -0.089996,0.292999 -0.089996,0.457001c0,0.207001 0.054016,0.378998 0.156006,0.518997c0.10199,0.137001 0.238007,0.253998 0.406006,0.351997c0.167999,0.098 0.359985,0.183006 0.574005,0.254005c0.214996,0.07 0.43399,0.143997 0.656982,0.222c0.226013,0.074997 0.445007,0.160995 0.660004,0.257996c0.214996,0.094002 0.406006,0.215004 0.574005,0.363998c0.167999,0.144005 0.304993,0.324005 0.406006,0.535004c0.10199,0.214996 0.152985,0.475998 0.152985,0.784996c0,0.328003 -0.054993,0.633003 -0.164001,0.922005c-0.109985,0.284996 -0.273987,0.534996 -0.488983,0.75c-0.214996,0.210999 -0.476013,0.378998 -0.789001,0.5c-0.312012,0.121002 -0.664001,0.182999 -1.062012,0.182999c-0.488983,0 -0.929993,-0.089996 -1.328003,-0.264999c-0.394989,-0.176003 -0.734985,-0.414001 -1.015991,-0.710999l0.292999,-0.481003l0.097992,-0.097l0.136017,-0.039001l0.152985,0.054001l0.195007,0.140999c0.074005,0.055 0.156006,0.117004 0.25,0.18c0.093994,0.066002 0.203003,0.128006 0.324005,0.183006c0.121002,0.054993 0.253998,0.101997 0.410004,0.140999c0.152985,0.034996 0.324982,0.054001 0.515991,0.054001c0.242004,0 0.453003,-0.035004 0.640991,-0.101006c0.19101,-0.067001 0.347015,-0.159996 0.480011,-0.277c0.128998,-0.121994 0.230988,-0.265999 0.296997,-0.43c0.074005,-0.167999 0.105011,-0.355995 0.105011,-0.562996c0,-0.225998 -0.050018,-0.410004 -0.152008,-0.554001c-0.105011,-0.144997 -0.238007,-0.265999 -0.406006,-0.363998c-0.167999,-0.097 -0.355988,-0.179001 -0.574005,-0.246002c-0.214996,-0.07 -0.43399,-0.139999 -0.656982,-0.210999c-0.222015,-0.07 -0.44101,-0.152 -0.656006,-0.246002c-0.218994,-0.097 -0.410004,-0.218002 -0.578003,-0.366997c-0.167999,-0.148003 -0.300995,-0.335999 -0.402008,-0.562004c-0.10199,-0.223 -0.156982,-0.5 -0.156982,-0.832001c0,-0.265999 0.054993,-0.519997 0.156982,-0.765999c0.101013,-0.25 0.25,-0.469002 0.445007,-0.659996c0.199005,-0.192001 0.44101,-0.344002 0.730011,-0.461006c0.28598,-0.112999 0.613983,-0.171997 0.988983,-0.171997c0.417999,0 0.796997,0.066002 1.140015,0.198997c0.343994,0.133003 0.644989,0.324005 0.906982,0.574005l-0.246002,0.480995zm0,0"/>
    <path fill-rule="nonzero" fill="rgb(22.3526%,68.235779%,90.98053%)" d="m323.593994,123.551003c-0.367004,0.195 -0.644989,0.429001 -0.832001,0.707001c-0.187988,0.280998 -0.277985,0.581993 -0.277985,0.909996c0,0.226997 0.039001,0.426003 0.125,0.598c0.082001,0.172005 0.191986,0.32 0.328979,0.437004c0.136017,0.116997 0.289001,0.207001 0.46402,0.269997c0.171997,0.057999 0.35199,0.088997 0.531982,0.088997c0.390015,0 0.742004,-0.07 1.054016,-0.213997c0.30899,-0.140999 0.582001,-0.332001 0.816986,-0.574997l-2.210999,-2.222zm4.828003,3.682999l-0.902008,0c-0.105988,0 -0.18399,-0.011002 -0.246979,-0.035004l-0.207001,-0.152l-0.753998,-0.761993c-0.328003,0.316994 -0.707001,0.57 -1.132019,0.753998c-0.425995,0.187996 -0.894989,0.280998 -1.406982,0.280998c-0.281006,0 -0.550018,-0.046997 -0.820007,-0.139999c-0.261993,-0.094002 -0.503998,-0.231003 -0.714996,-0.410004c-0.214996,-0.18 -0.382996,-0.398994 -0.511017,-0.656998c-0.128998,-0.257996 -0.195984,-0.546997 -0.195984,-0.871002c0,-0.241997 0.042999,-0.475998 0.125,-0.690994c0.082001,-0.219002 0.195984,-0.417999 0.339996,-0.606003c0.148987,-0.182999 0.320007,-0.347 0.519989,-0.496002c0.195007,-0.143997 0.414001,-0.268997 0.652008,-0.375c-0.214996,-0.272995 -0.371002,-0.534996 -0.468994,-0.784996c-0.105011,-0.253998 -0.152008,-0.515999 -0.152008,-0.785004c0,-0.253998 0.042999,-0.495995 0.136993,-0.718994c0.093018,-0.223007 0.226013,-0.414001 0.39801,-0.582001c0.175995,-0.164001 0.386993,-0.292999 0.636993,-0.391006c0.246002,-0.097 0.527008,-0.143997 0.835999,-0.143997c0.277008,0 0.527008,0.046997 0.753998,0.133003c0.226013,0.089996 0.421021,0.207001 0.585999,0.354996c0.164001,0.145004 0.292999,0.313004 0.386017,0.508003c0.097992,0.191002 0.152985,0.394997 0.164001,0.601997l-0.578003,0.117004c-0.117004,0.027 -0.199005,-0.028 -0.253998,-0.164001c-0.027008,-0.090004 -0.06601,-0.183998 -0.121002,-0.280998c-0.050995,-0.098007 -0.125,-0.184006 -0.207001,-0.266006c-0.085999,-0.082001 -0.187012,-0.148994 -0.308014,-0.198997c-0.121979,-0.051003 -0.261993,-0.078003 -0.421997,-0.078003c-0.171997,0 -0.328003,0.027 -0.472992,0.082001c-0.140991,0.058006 -0.257996,0.132004 -0.359009,0.234001c-0.097992,0.098 -0.175995,0.215004 -0.22699,0.348c-0.050995,0.136002 -0.078003,0.280998 -0.078003,0.437004c0,0.120995 0.015991,0.237999 0.042999,0.351997c0.027008,0.109001 0.070007,0.222 0.128998,0.340004c0.062012,0.112999 0.140015,0.229996 0.234009,0.347c0.093994,0.120995 0.207001,0.245995 0.339996,0.378998l2.152008,2.187996c0.132996,-0.238998 0.238983,-0.485001 0.316986,-0.742996c0.082001,-0.253998 0.132996,-0.507004 0.156006,-0.761002l0.06601,-0.156998l0.144989,-0.057999l0.570007,0c-0.003998,0.397995 -0.06601,0.792999 -0.187012,1.175995c-0.125,0.386002 -0.300995,0.746002 -0.527985,1.085999l1.566986,1.589005zm0,0"/>
    <path fill-rule="nonzero" fill="rgb(22.3526%,68.235779%,90.98053%)" d="m268.718994,138.223007l0.14801,0.069992l0.402985,0.434006c-0.30899,0.354996 -0.679993,0.627991 -1.117981,0.827988c-0.437012,0.199005 -0.96402,0.297012 -1.582001,0.297012c-0.539001,0 -1.027008,-0.090012 -1.464996,-0.278c-0.437012,-0.187012 -0.812012,-0.445007 -1.121002,-0.785004c-0.312012,-0.335999 -0.550018,-0.738007 -0.722015,-1.207001c-0.171997,-0.473007 -0.253998,-0.988007 -0.253998,-1.550995c0,-0.562012 0.085999,-1.082001 0.265015,-1.55101c0.175995,-0.472 0.425995,-0.875 0.75,-1.213989c0.320984,-0.336014 0.707001,-0.598007 1.156982,-0.786011c0.449005,-0.182999 0.945007,-0.276993 1.488007,-0.276993c0.531006,0 1,0.085999 1.410004,0.253998c0.406006,0.171997 0.765991,0.401993 1.074005,0.694992l-0.332001,0.465012l-0.082001,0.085999l-0.132996,0.035004c-0.062012,0 -0.140015,-0.035004 -0.230011,-0.101013c-0.089996,-0.070999 -0.210999,-0.144989 -0.355011,-0.22699c-0.144989,-0.085999 -0.328979,-0.160004 -0.546997,-0.225998c-0.218994,-0.070999 -0.488983,-0.102005 -0.812988,-0.102005c-0.382996,0 -0.738007,0.065994 -1.058014,0.199005c-0.320984,0.132996 -0.597992,0.327988 -0.828979,0.582001c-0.230011,0.253998 -0.410004,0.562988 -0.539001,0.929993c-0.128998,0.367004 -0.195007,0.777008 -0.195007,1.238007c0,0.464996 0.070007,0.882996 0.203003,1.245987c0.132996,0.368011 0.316986,0.67601 0.546997,0.930008c0.234009,0.25 0.503998,0.440994 0.820007,0.574005c0.316986,0.132996 0.656982,0.19899 1.019989,0.19899c0.226013,0 0.425995,-0.011002 0.605011,-0.039001c0.179993,-0.022995 0.343994,-0.065994 0.496002,-0.120987c0.152985,-0.054001 0.292999,-0.129013 0.421997,-0.211014c0.128998,-0.085999 0.261993,-0.186996 0.390991,-0.307999l0.175995,-0.077988zm0,0"/>
    <path fill-rule="nonzero" fill="rgb(22.3526%,68.235779%,90.98053%)" d="m276.242188,136.03125c0,-0.460938 -0.0625,-0.871094 -0.1875,-1.238281c-0.125,-0.367188 -0.304688,-0.675781 -0.535156,-0.925781c-0.226563,-0.253906 -0.507813,-0.449219 -0.835938,-0.582031c-0.328125,-0.136719 -0.691406,-0.207031 -1.09375,-0.207031c-0.402344,0 -0.765625,0.070313 -1.09375,0.207031c-0.324219,0.132813 -0.605469,0.328125 -0.835938,0.582031c-0.230469,0.25 -0.410156,0.558594 -0.535156,0.925781c-0.125,0.367188 -0.191406,0.777344 -0.191406,1.238281c0,0.457031 0.066406,0.871094 0.191406,1.234375c0.125,0.363281 0.304688,0.671875 0.535156,0.925781c0.230469,0.25 0.511719,0.445313 0.835938,0.578125c0.328125,0.132813 0.691406,0.203125 1.09375,0.203125c0.402344,0 0.765625,-0.070313 1.09375,-0.203125c0.328125,-0.132813 0.609375,-0.328125 0.835938,-0.578125c0.230469,-0.253906 0.410156,-0.5625 0.535156,-0.925781c0.125,-0.363281 0.1875,-0.777344 0.1875,-1.234375m1.039063,0c0,0.5625 -0.089844,1.074219 -0.265625,1.542969c-0.179688,0.46875 -0.429688,0.871094 -0.753906,1.207031c-0.324219,0.339844 -0.710938,0.601563 -1.167969,0.789063c-0.453125,0.183594 -0.957031,0.277344 -1.503906,0.277344c-0.550781,0 -1.050781,-0.09375 -1.503906,-0.277344c-0.453125,-0.1875 -0.839844,-0.449219 -1.164063,-0.789063c-0.324219,-0.335938 -0.578125,-0.738281 -0.753906,-1.207031c-0.179688,-0.46875 -0.265625,-0.980469 -0.265625,-1.542969c0,-0.5625 0.085938,-1.074219 0.265625,-1.542969c0.175781,-0.46875 0.429688,-0.875 0.753906,-1.210938c0.324219,-0.339844 0.710938,-0.605469 1.164063,-0.792969c0.453125,-0.1875 0.953125,-0.28125 1.503906,-0.28125c0.546875,0 1.050781,0.09375 1.503906,0.28125c0.457031,0.1875 0.84375,0.453125 1.167969,0.792969c0.324219,0.335938 0.574219,0.742188 0.753906,1.210938c0.175781,0.46875 0.265625,0.980469 0.265625,1.542969"/>
    <path fill-rule="nonzero" fill="rgb(22.3526%,68.235779%,90.98053%)" d="m286.582001,132.285004l0,7.485001l-0.886993,0l0,-5.5l0.007996,-0.235001l0.019989,-0.253998l-2.570984,4.679993c-0.082001,0.152008 -0.203003,0.234009 -0.367004,0.234009l-0.144012,0c-0.164001,0 -0.28598,-0.082001 -0.367981,-0.234009l-2.621002,-4.703003c0.023987,0.182999 0.031982,0.355011 0.031982,0.512009l0,5.5l-0.886993,0l0,-7.485001l0.746002,0c0.089996,0 0.160004,0.011993 0.210999,0.026993l0.140991,0.145004l2.585022,4.604996c0.039978,0.085999 0.082001,0.171997 0.121979,0.262009c0.039001,0.093994 0.078003,0.18399 0.113007,0.278c0.031006,-0.094009 0.070007,-0.188004 0.105011,-0.278c0.039001,-0.094009 0.082001,-0.179001 0.128998,-0.264999l2.535004,-4.602005l0.140991,-0.145004l0.210999,-0.026993l0.746002,0zm0,0"/>
    <path fill-rule="nonzero" fill="rgb(22.3526%,68.235779%,90.98053%)" d="m296.347992,132.285004l0,7.485001l-0.886993,0l0,-5.5l0.007996,-0.235001l0.019012,-0.253998l-2.570007,4.679993c-0.078003,0.152008 -0.203003,0.234009 -0.367004,0.234009l-0.144989,0c-0.160004,0 -0.285004,-0.082001 -0.367004,-0.234009l-2.621002,-4.703003c0.02301,0.182999 0.035004,0.355011 0.035004,0.512009l0,5.5l-0.890991,0l0,-7.485001l0.75,0l0.207977,0.026993l0.140015,0.145004l2.585999,4.604996c0.042999,0.085999 0.082001,0.171997 0.121002,0.262009c0.042999,0.093994 0.078003,0.18399 0.113007,0.278c0.03598,-0.094009 0.070984,-0.188004 0.109985,-0.278c0.039001,-0.094009 0.082001,-0.179001 0.125,-0.264999l2.539001,-4.602005l0.140991,-0.145004c0.046021,-0.014999 0.117004,-0.026993 0.210022,-0.026993l0.742981,0zm0,0"/>
    <path fill-rule="nonzero" fill="rgb(22.3526%,68.235779%,90.98053%)" d="m301.21875,138.964844c0.308594,0 0.585938,-0.050781 0.828125,-0.15625c0.246094,-0.105469 0.453125,-0.25 0.621094,-0.4375c0.167969,-0.1875 0.296875,-0.414063 0.386719,-0.675781c0.089844,-0.261719 0.132813,-0.546875 0.132813,-0.859375l0,-4.550781l1.007813,0l0,4.550781c0,0.429688 -0.070313,0.832031 -0.207031,1.199219c-0.136719,0.371094 -0.332031,0.6875 -0.589844,0.957031c-0.253906,0.273438 -0.570313,0.484375 -0.9375,0.636719c-0.367188,0.152344 -0.78125,0.230469 -1.242188,0.230469c-0.460938,0 -0.875,-0.078125 -1.242188,-0.230469c-0.367188,-0.152344 -0.683594,-0.363281 -0.941406,-0.636719c-0.257813,-0.269531 -0.457031,-0.585938 -0.59375,-0.957031c-0.136719,-0.367188 -0.203125,-0.769531 -0.203125,-1.199219l0,-4.550781l1.007813,0l0,4.542969c0,0.316406 0.042969,0.601563 0.132813,0.863281c0.085938,0.261719 0.214844,0.484375 0.386719,0.671875c0.167969,0.191406 0.375,0.335938 0.621094,0.441406c0.246094,0.109375 0.519531,0.160156 0.832031,0.160156"/>
    <path fill-rule="nonzero" fill="rgb(22.3526%,68.235779%,90.98053%)" d="m312.14801,132.285004l0,7.485001l-0.507019,0l-0.199982,-0.042999l-0.160004,-0.141006l-4.332001,-5.640991l0.015991,0.257996l0.007996,0.235001l0,5.332001l-0.890991,0l0,-7.485001l0.52301,0l0.113983,0.007996l0.085999,0.027008l0.070007,0.050995l0.082001,0.085999l4.328003,5.636993c-0.007996,-0.089996 -0.011993,-0.179993 -0.019012,-0.265991l-0.007996,-0.242004l0,-5.300995l0.890015,0zm0,0"/>
    <path fill-rule="nonzero" fill="rgb(22.3526%,68.235779%,90.98053%)" d="m315.140991,139.770004l-1.011993,0l0,-7.485001l1.011993,0l0,7.485001zm0,0"/>
    <path fill-rule="nonzero" fill="rgb(22.3526%,68.235779%,90.98053%)" d="m322.18399,133.136993l-2.425995,0l0,6.633011l-1.007996,0l0,-6.633011l-2.425995,0l0,-0.85199l5.859985,0l0,0.85199zm0,0"/>
    <path fill-rule="nonzero" fill="rgb(22.3526%,68.235779%,90.98053%)" d="m326.167999,136.789001l0,2.981003l-1.011993,0l0,-2.981003l-2.742004,-4.503998l0.890991,0l0.210999,0.067001l0.136017,0.167999l1.710999,2.909988c0.066986,0.121002 0.121002,0.238007 0.171997,0.343002c0.054993,0.106003 0.10199,0.210999 0.136993,0.320999c0.039001,-0.110001 0.082001,-0.214996 0.132996,-0.320999c0.046997,-0.104996 0.101013,-0.222 0.160004,-0.343002l1.707001,-2.909988l0.132996,-0.161011l0.214996,-0.07399l0.890015,0l-2.742004,4.503998zm0,0"/>
    <path fill-rule="nonzero" fill="rgb(22.3526%,68.235779%,90.98053%)" d="m349.011719,130.125c0,-1.246094 -0.171875,-2.359367 -0.515625,-3.339844c-0.335938,-0.980469 -0.816406,-1.8125 -1.4375,-2.492188c-0.625,-0.679688 -1.378906,-1.195313 -2.265625,-1.554688c-0.886719,-0.359375 -1.878906,-0.539063 -2.972656,-0.539063l-4.824219,0l0,15.835938l4.824219,0c1.09375,0 2.085938,-0.179688 2.972656,-0.539063c0.886719,-0.359375 1.640625,-0.875 2.265625,-1.550781c0.621094,-0.671875 1.101563,-1.5 1.4375,-2.480469c0.34375,-0.984375 0.515625,-2.097656 0.515625,-3.339844m2.8125,0c0,1.519531 -0.242188,2.898438 -0.722656,4.144531c-0.480469,1.246094 -1.160156,2.3125 -2.035156,3.199219c-0.878906,0.882813 -1.933594,1.570313 -3.164063,2.058594c-1.230469,0.484375 -2.589844,0.726563 -4.082031,0.726563l-7.570313,0l0,-20.277344l7.570313,0c1.492188,0 2.851563,0.246094 4.082031,0.730469c1.230469,0.484375 2.285156,1.175781 3.164063,2.066406c0.875,0.890625 1.554688,1.957031 2.035156,3.203125c0.480469,1.246094 0.722656,2.628906 0.722656,4.148438"/>
    <path fill-rule="nonzero" fill="rgb(22.3526%,68.235779%,90.98053%)" d="m365.988007,132.727005l-3.183014,-8.250008c-0.093994,-0.242996 -0.191986,-0.528 -0.296997,-0.855995c-0.105988,-0.324005 -0.203003,-0.672005 -0.296997,-1.039001c-0.199005,0.765999 -0.402008,1.402 -0.609009,1.909996l-3.179993,8.235008l7.56601,0zm5.718994,7.526993l-2.121002,0c-0.246002,0 -0.445007,-0.05899 -0.597992,-0.18399c-0.14801,-0.121002 -0.261017,-0.277008 -0.339996,-0.468002l-1.894012,-4.895004l-9.097992,0l-1.89801,4.895004c-0.054993,0.17099 -0.164001,0.32399 -0.324005,0.452988c-0.16098,0.133011 -0.355988,0.199005 -0.593994,0.199005l-2.121002,0l8.105011,-20.277l2.773987,0l8.109009,20.277zm0,0"/>
    <path fill-rule="nonzero" fill="rgb(22.3526%,68.235779%,90.98053%)" d="m380.011993,132.175995l0,8.078003l-2.746002,0l0,-8.078003l-7.429993,-12.198997l2.406006,0c0.246002,0 0.437988,0.062004 0.582001,0.179001c0.136993,0.117004 0.257996,0.270004 0.363983,0.457001l4.640015,7.883003c0.171997,0.332001 0.328003,0.640991 0.468994,0.925995c0.144012,0.289001 0.265015,0.578003 0.367004,0.871002c0.105988,-0.292999 0.222992,-0.582001 0.355988,-0.871002c0.132019,-0.285004 0.277008,-0.593994 0.437012,-0.925995l4.625,-7.883003c0.085999,-0.159996 0.203003,-0.304001 0.355988,-0.436996c0.14801,-0.133003 0.343018,-0.199005 0.582001,-0.199005l2.417999,0l-7.425995,12.198997zm0,0"/>
    <path fill-rule="nonzero" fill="rgb(22.3526%,68.235779%,90.98053%)" d="m399.804993,123.148003c-0.085999,0.140999 -0.175995,0.246994 -0.273987,0.316994c-0.101013,0.074005 -0.218994,0.105003 -0.363007,0.105003c-0.160004,0 -0.347992,-0.078003 -0.562988,-0.237999c-0.222015,-0.160004 -0.488007,-0.335999 -0.81601,-0.530998c-0.324005,-0.195999 -0.714996,-0.371002 -1.175995,-0.531006c-0.453003,-0.160995 -1.007996,-0.238998 -1.660004,-0.238998c-0.617004,0 -1.152008,0.082001 -1.621002,0.246002c-0.464996,0.167999 -0.859009,0.390999 -1.171997,0.671997c-0.31601,0.285004 -0.558014,0.617004 -0.714996,1c-0.160004,0.379005 -0.242004,0.792999 -0.242004,1.235001c0,0.57 0.140991,1.035004 0.417999,1.410004c0.277008,0.370995 0.644989,0.691002 1.10199,0.952995c0.457001,0.264999 0.980011,0.496002 1.558014,0.686996c0.582001,0.192001 1.175995,0.395004 1.781006,0.602005c0.609985,0.207001 1.203979,0.440994 1.781982,0.699005c0.582001,0.261993 1.101013,0.589996 1.558014,0.985001c0.457001,0.397995 0.828003,0.881989 1.105988,1.457001c0.277008,0.57399 0.414001,1.284988 0.414001,2.125c0,0.886002 -0.148987,1.718002 -0.449005,2.496002c-0.304993,0.776993 -0.742981,1.452988 -1.324982,2.030991c-0.582001,0.574005 -1.292999,1.027008 -2.136017,1.359009c-0.843994,0.327988 -1.804993,0.491989 -2.878998,0.491989c-1.320984,0 -2.515991,-0.237991 -3.593994,-0.713989c-1.078003,-0.477005 -1.996002,-1.121002 -2.757996,-1.930008l0.792999,-1.300995c0.074005,-0.105011 0.164001,-0.19101 0.269989,-0.262009c0.109009,-0.07399 0.234009,-0.104996 0.363007,-0.104996c0.121002,0 0.261993,0.046997 0.417999,0.143997c0.156006,0.102005 0.332001,0.227005 0.531006,0.376007c0.199005,0.151993 0.421997,0.315994 0.679993,0.496002c0.253998,0.179001 0.542999,0.347 0.867004,0.495987c0.328003,0.152008 0.695007,0.277008 1.113007,0.375c0.414001,0.097 0.882996,0.14801 1.398987,0.14801c0.656006,0 1.234009,-0.089996 1.742004,-0.268997c0.511993,-0.180008 0.94101,-0.430008 1.292999,-0.758011c0.355011,-0.32399 0.625,-0.714996 0.81601,-1.164001c0.187988,-0.457001 0.281982,-0.960999 0.281982,-1.515991c0,-0.613007 -0.136993,-1.117004 -0.417999,-1.507996c-0.277985,-0.389999 -0.644989,-0.718002 -1.093994,-0.984009c-0.453003,-0.261993 -0.972992,-0.487991 -1.55899,-0.671997c-0.582001,-0.184006 -1.179016,-0.371002 -1.781006,-0.565994c-0.605011,-0.192001 -1.199005,-0.417999 -1.785004,-0.672012c-0.582001,-0.253998 -1.10199,-0.582001 -1.554993,-0.988998c-0.453003,-0.405991 -0.820007,-0.914001 -1.093994,-1.518997c-0.281006,-0.609001 -0.421021,-1.362999 -0.421021,-2.257996c0,-0.719002 0.140015,-1.410004 0.421021,-2.082001c0.273987,-0.667999 0.679993,-1.265999 1.214996,-1.781006c0.531982,-0.519997 1.187988,-0.933998 1.964996,-1.245995c0.781006,-0.308998 1.671997,-0.465004 2.679993,-0.465004c1.132996,0 2.164001,0.176003 3.093994,0.535004c0.929016,0.359001 1.746002,0.878998 2.457001,1.555l-0.667999,1.304001zm0,0"/>
    <path fill-rule="nonzero" fill="rgb(22.3526%,68.235779%,90.98053%)" d="m351.007813,82.164063c-2.15625,-3.027344 -4.507813,-5.902344 -6.921875,-8.71093c-1.226563,-1.386726 -2.433594,-2.792976 -3.691406,-4.148445l-1.875,-2.046875l-1.925781,-1.996094l-3.867188,-4.007809l-3.972656,-3.863281c-1.3125,-1.296879 -2.65625,-2.5625 -4.015625,-3.82032c-1.359375,-1.253899 -2.6875,-2.542969 -4.082031,-3.75c-1.375,-1.21875 -2.746094,-2.457027 -4.175781,-3.65234l-4.238281,-3.632809c-2.832031,-2.433601 -5.605469,-4.921879 -8.332031,-7.480469c-1.378906,-1.261723 -2.722656,-2.56641 -4.070313,-3.863281c-1.359375,-1.28516 -2.660156,-2.636721 -3.988281,-3.960939c-1.332031,-1.320311 -2.597656,-2.71875 -3.898438,-4.074221c-1.277344,-1.382811 -2.519531,-2.800779 -3.769531,-4.21484l4.414063,-1.824221c0.351563,3.15625 0.515625,6.37109 0.304688,9.632811c-0.222656,3.25 -0.761719,6.570309 -1.960938,9.761719c-1.148438,3.195313 -2.976563,6.210941 -5.226563,8.761723l-0.421875,0.480469l-0.273438,0.289059l-0.203125,0.203121l-0.804688,0.82032c-0.59375,0.55468 -1.289063,1.21093 -1.925781,1.722649c-1.28125,1.07032 -2.617188,2.023441 -3.96875,2.921883c-5.4375,3.546867 -11.070313,6.109367 -16.289063,9.035149c-5.242188,2.87891 -10.070313,6.148441 -14.144531,10.144543c-4.089844,3.972649 -7.339844,8.71093 -9.742188,13.933586c-1.179688,2.601563 -2.226563,5.410164 -2.980469,8.105469c-0.785156,2.773445 -1.359375,5.605469 -1.71875,8.46875c-0.699219,5.71875 -0.648438,11.554695 0.320313,17.261719c0.949219,5.707031 2.730469,11.277344 5.253906,16.5c2.511719,5.226563 5.808594,10.070313 9.644531,14.4375c1.929688,2.179688 3.996094,4.246094 6.210938,6.144531c1.117188,0.949219 2.351563,2.050781 3.445313,2.863281c1.09375,0.890625 2.3125,1.722656 3.5,2.574219c2.425781,1.625 4.953125,3.105469 7.566406,4.429688c2.628906,1.285156 5.328125,2.425781 8.089844,3.410156c2.769531,0.957031 5.613281,1.714844 8.488281,2.324219c2.886719,0.570313 5.808594,0.945313 8.75,1.164063l2.210938,0.097656l1.0625,0.039063l1.148438,-0.003906c1.566406,0.023438 2.992188,-0.0625 4.453125,-0.117188c2.953125,-0.175781 5.902344,-0.515625 8.824219,-1.035156c5.828125,-1.09375 11.546875,-2.910156 16.851563,-5.609375c2.660156,-1.324219 5.246094,-2.828125 7.660156,-4.582031c0.625,-0.414063 1.191406,-0.894531 1.789063,-1.34375c0.605469,-0.464844 1.160156,-0.898438 1.757813,-1.398438c0.585938,-0.488281 1.199219,-0.96875 1.765625,-1.464844l1.675781,-1.484375c2.226563,-2.023438 4.308594,-4.222656 6.195313,-6.597656c1.882813,-2.382813 3.574219,-4.9375 5.152344,-7.578125c-1.214844,2.820313 -2.53125,5.621094 -4.144531,8.277344c-1.644531,2.636719 -3.53125,5.136719 -5.597656,7.488281c-4.125,4.617188 -9.066406,8.738281 -14.554688,11.84375c-5.484375,3.15625 -11.472656,5.378906 -17.625,6.847656c-3.085938,0.710938 -6.214844,1.230469 -9.367188,1.570313c-1.601563,0.125 -3.234375,0.265625 -4.734375,0.296875l-1.148438,0.042969c-0.488281,0.011719 -0.820313,0 -1.238281,0l-2.382813,-0.015625c-3.183594,-0.121094 -6.359375,-0.417969 -9.511719,-0.925781c-3.144531,-0.546875 -6.265625,-1.265625 -9.324219,-2.203125c-3.050781,-0.960938 -6.050781,-2.097656 -8.953125,-3.464844c-2.890625,-1.386719 -5.695313,-2.949219 -8.398438,-4.679688c-1.324219,-0.902344 -2.65625,-1.773438 -3.96875,-2.789063c-1.378906,-1 -2.445313,-1.925781 -3.6875,-2.933594c-2.484375,-2.039063 -4.8125,-4.269531 -7,-6.632813c-4.382813,-4.722656 -8.074219,-10.105469 -10.914063,-15.910156c-2.855469,-5.796875 -4.890625,-12.007805 -5.996094,-18.386719c-1.101563,-6.382813 -1.300781,-12.941406 -0.433594,-19.378906c0.425781,-3.21875 1.09375,-6.40625 2.003906,-9.52343c0.929688,-3.199226 2.054688,-6.140633 3.425781,-9.117195c2.757813,-5.894531 6.585938,-11.410156 11.332031,-15.949219c4.730469,-4.570309 10.292969,-8.042969 15.835938,-10.957027c5.546875,-2.94141 11.160156,-5.37891 16.0625,-8.445313c1.214844,-0.773438 2.398438,-1.578129 3.488281,-2.449219c0.566406,-0.44141 1.003906,-0.81641 1.550781,-1.28907l0.832031,-0.789059l0.210938,-0.199223l0.050781,-0.046867c-0.136719,0.140617 -0.007813,0.007809 -0.027344,0.02734l0.101563,-0.101563l0.347656,-0.375c1.871094,-1.980469 3.367188,-4.24609 4.382813,-6.789059c2.078125,-5.078131 2.402344,-11.011721 1.949219,-16.87891l-0.609375,-7.88281l5.023438,6.05859c1.167969,1.40235 2.289063,2.847659 3.46875,4.249999c1.203125,1.382811 2.363281,2.800781 3.605469,4.15625c1.238281,1.359381 2.445313,2.746101 3.722656,4.074221c1.261719,1.33984 2.519531,2.6875 3.820313,3.99609c1.285156,1.324219 2.578125,2.640629 3.898438,3.9375c1.300781,1.3125 2.609375,2.617191 3.933594,3.90625l8.007813,7.765629c1.359375,1.289063 2.636719,2.644531 3.949219,3.96875c1.3125,1.324223 2.613281,2.66016 3.867188,4.050781l3.796875,4.117191l3.644531,4.207027l1.832031,2.121094l1.757813,2.175781c1.183594,1.433594 2.277344,2.949219 3.40625,4.429688c2.203125,3 4.335938,6.054688 6.257813,9.238281"/>
   </g>
  </svg>
 </defs>
 <g>
  <title>Layer 1</title>
  <use x="-16.613894" y="-1.424048" transform="matrix(2.10667, 0, 0, 2.10667, -517.046, -20.6105)" id="svg_2" xlink:href="#svg_1"/>
 </g>
</svg>