<?xml version="1.0" encoding="UTF-8" standalone="no"?>
<!-- Created with Inkscape (http://www.inkscape.org/) -->

<svg
   xmlns:dc="http://purl.org/dc/elements/1.1/"
   xmlns:cc="http://creativecommons.org/ns#"
   xmlns:rdf="http://www.w3.org/1999/02/22-rdf-syntax-ns#"
   xmlns:svg="http://www.w3.org/2000/svg"
   xmlns="http://www.w3.org/2000/svg"
   xmlns:sodipodi="http://sodipodi.sourceforge.net/DTD/sodipodi-0.dtd"
   xmlns:inkscape="http://www.inkscape.org/namespaces/inkscape"
   id="svg2"
   version="1.1"
   inkscape:version="0.91 r13725"
   width="360"
   height="360"
   viewBox="0 0 360 360"
   sodipodi:docname="dddddddddiududududu.svg">
  <metadata
     id="metadata8">
    <rdf:RDF>
      <cc:Work
         rdf:about="">
        <dc:format>image/svg+xml</dc:format>
        <dc:type
           rdf:resource="http://purl.org/dc/dcmitype/StillImage" />
        <dc:title></dc:title>
      </cc:Work>
    </rdf:RDF>
  </metadata>
  <defs
     id="defs6" />
  <sodipodi:namedview
     pagecolor="#ffffff"
     bordercolor="#666666"
     borderopacity="1"
     objecttolerance="10"
     gridtolerance="10"
     guidetolerance="10"
     inkscape:pageopacity="0"
     inkscape:pageshadow="2"
     inkscape:window-width="1547"
     inkscape:window-height="876"
     id="namedview4"
     showgrid="false"
     inkscape:zoom="2.1213203"
     inkscape:cx="212.46882"
     inkscape:cy="153.43586"
     inkscape:window-x="53"
     inkscape:window-y="24"
     inkscape:window-maximized="1"
     inkscape:current-layer="g4362"
     showguides="false" />
  <g
     id="g4362"
     transform="translate(14.666667,12.703937)"
     style="fill:#ffffff;fill-opacity:1">
    <path
       style="fill:#ffffff;fill-opacity:1"
       d="m 152.68481,311.09441 c -17.40487,-3.06355 -33.69822,-9.71958 -49.5,-20.22133 L 94.684812,285.22403 84.071116,274.70303 73.45742,264.18202 68.178074,256.2652 C 55.750721,237.62935 48.856701,217.08393 47.487057,194.60225 l -0.586371,-9.62485 1.244983,-9.89098 c 5.271143,-41.87747 23.338381,-65.16059 68.757521,-88.607342 19.19087,-9.906909 25.58195,-14.112757 31.57594,-20.779515 l 4.59818,-5.114282 1.98156,-5.296204 c 1.08986,-2.912912 2.51164,-8.178647 3.15951,-11.701632 l 1.17794,-6.405427 -0.68488,-13.5 -0.68488,-13.5 0.91773,1 c 0.50475,0.55 5.33947,6.4 10.74381,13 5.40434,6.6 23.38863,25.725 39.96508,42.5 37.34191,37.789192 53.66085,56.544142 61.91797,71.160822 l 1.88635,3.33918 -1.44677,-1.5 c -0.79573,-0.825 -4.11958,-4.875 -7.38635,-9 -9.17389,-11.58403 -35.22565,-37.798772 -52.93957,-53.270764 -8.8,-7.686244 -21.91295,-19.534365 -29.1399,-26.329159 l -13.1399,-12.354169 -0.64076,4.727045 C 165.3403,68.713985 156.18372,79.526107 123.32929,97.104718 86.587057,116.76348 73.29668,131.26288 64.595035,161.18202 l -2.617549,9 -0.514114,14.5 -0.514114,14.5 1.661636,8.81199 c 9.584773,50.82999 54.174456,90.11207 107.405136,94.62049 l 9.66878,0.81891 10.5,-0.84281 c 34.68602,-2.78417 67.33538,-21.29738 85.35315,-48.3979 5.89866,-8.87217 5.9122,-7.65221 0.0387,3.48748 -14.56986,27.63335 -43.87807,47.62276 -78.3181,53.41618 l -9.42618,1.58566 -13.57379,-0.0897 c -7.46558,-0.0494 -17.17378,-0.72339 -21.57378,-1.49787 z"
       id="path4394"
       inkscape:connector-curvature="0"
       sodipodi:nodetypes="cscccsscssscsscccsssscsssscssscccsscsssscscc" />
  </g>
  <path
     style="fill:#000000"
     d=""
     id="path4138"
     inkscape:connector-curvature="0" />
</svg>
