<?xml version="1.0" encoding="UTF-8" standalone="no"?>
<!-- Created with Inkscape (http://www.inkscape.org/) -->

<svg
   xmlns:dc="http://purl.org/dc/elements/1.1/"
   xmlns:cc="http://creativecommons.org/ns#"
   xmlns:rdf="http://www.w3.org/1999/02/22-rdf-syntax-ns#"
   xmlns:svg="http://www.w3.org/2000/svg"
   xmlns="http://www.w3.org/2000/svg"
   xmlns:sodipodi="http://sodipodi.sourceforge.net/DTD/sodipodi-0.dtd"
   xmlns:inkscape="http://www.inkscape.org/namespaces/inkscape"
   id="svg2"
   version="1.1"
   inkscape:version="0.91 r13725"
   width="360"
   height="360"
   viewBox="0 0 360 360"
   sodipodi:docname="dsdsdsdsdsds.svg">
  <metadata
     id="metadata8">
    <rdf:RDF>
      <cc:Work
         rdf:about="">
        <dc:format>image/svg+xml</dc:format>
        <dc:type
           rdf:resource="http://purl.org/dc/dcmitype/StillImage" />
        <dc:title></dc:title>
      </cc:Work>
    </rdf:RDF>
  </metadata>
  <defs
     id="defs6" />
  <sodipodi:namedview
     pagecolor="#ffffff"
     bordercolor="#666666"
     borderopacity="1"
     objecttolerance="10"
     gridtolerance="10"
     guidetolerance="10"
     inkscape:pageopacity="0"
     inkscape:pageshadow="2"
     inkscape:window-width="1547"
     inkscape:window-height="876"
     id="namedview4"
     showgrid="false"
     inkscape:zoom="2.1213203"
     inkscape:cx="173.86849"
     inkscape:cy="172.29204"
     inkscape:window-x="53"
     inkscape:window-y="24"
     inkscape:window-maximized="1"
     inkscape:current-layer="g4362"
     showguides="false" />
  <g
     id="g4362"
     transform="translate(14.666667,12.703937)"
     style="fill:#ffffff;fill-opacity:1">
    <path
       style="fill:#ffffff;fill-opacity:1"
       d="m 169.95477,223.7494 0,-26.37217 13.44966,0 c 18.27306,0 24.82099,2.91588 30.41105,13.54247 l 2.24967,4.27657 0.0204,8.79186 0.0205,8.79189 -3.92537,5.93164 -3.92538,5.93165 -5.96419,2.70782 -5.96418,2.70784 -13.18609,0.0314 -13.18608,0.0314 0,-26.37217 z m 29.13614,17.59932 c 5.01653,-2.28568 7.93775,-7.28623 8.87388,-15.19034 l 0.79695,-6.72911 -2.17814,-5.21305 c -1.19798,-2.86718 -3.83561,-6.29906 -5.86138,-7.62639 l -3.68324,-2.41335 -9.26554,-0.74374 -9.26554,-0.74375 0,20.15248 0,20.15249 8.48607,0 c 4.66733,0 10.11096,-0.74036 12.09694,-1.64524 z m 19.32759,7.7984 c -0.003,-0.64011 4.55636,-12.55019 10.13018,-26.46686 l 10.13421,-25.30303 3.97354,0 3.97353,0 10.13421,25.30303 c 11.62052,29.01404 11.24894,27.44132 6.48333,27.44132 l -3.64281,0 -2.98463,-7.18183 -2.98463,-7.18184 -11.36139,0.4106 -11.36138,0.4106 -2.35722,6.41485 -2.35722,6.41485 -3.88784,0.45107 c -2.13831,0.24808 -3.88965,-0.0727 -3.89188,-0.71276 z m 32.4249,-20.76477 c -0.36915,-0.98005 -2.12745,-5.79119 -3.90733,-10.69142 -1.77988,-4.90023 -3.71735,-8.90952 -4.30549,-8.90952 -0.87585,0 -8.52729,18.6202 -8.52729,20.75164 0,0.34715 3.91753,0.6312 8.70565,0.6312 l 8.70566,0 z m 30.30214,11.60957 0,-10.12963 -9.2659,-15.37879 c -10.67387,-17.71562 -10.48385,-17.10771 -5.34571,-17.10162 l 3.92019,0.004 6.9334,12.11229 c 3.81337,6.66215 7.10818,12.11268 7.32183,12.11268 0.21364,0 3.50845,-5.45053 7.32182,-12.1123 l 6.9334,-12.11228 3.92019,-0.004 c 5.13814,-0.006 5.32816,-0.614 -5.34571,17.10163 l -9.2659,15.37878 0,10.12964 0,10.12965 -3.5638,0 -3.56381,0 0,-10.12965 z m 31.71788,7.29423 c -4.92199,-3.00099 -5.32441,-3.84409 -3.33465,-6.98618 l 1.25463,-1.98122 6.55367,3.17257 6.55367,3.17258 3.93043,-1.29661 3.93043,-1.29661 1.84663,-3.7877 1.84664,-3.78769 -1.42557,-2.66369 -1.42556,-2.66367 -8.55721,-3.12013 -8.55722,-3.12011 -2.91166,-3.70157 c -3.65564,-4.64741 -3.69549,-9.85446 -0.12031,-15.71797 l 2.78071,-4.56049 5.41071,-1.44245 5.41073,-1.44244 5.5463,1.26511 c 3.05046,0.69581 6.55572,2.27454 7.78947,3.50827 l 2.24316,2.24317 -2.18697,2.18697 -2.18696,2.18696 -4.17699,-2.17818 c -5.07912,-2.64864 -9.30763,-2.79139 -12.25844,-0.41384 -6.46622,5.21001 -3.25623,10.81612 8.6866,15.17069 l 8.58773,3.13124 2.17481,3.10497 c 4.21371,6.01593 1.58156,16.83531 -5.26185,21.62863 l -3.17638,2.22482 -7.16681,-0.006 -7.1668,-0.006 -4.63295,-2.82476 z M -8.8443799,246.45808 c -1.2308821,-1.23088 -2.6432301,-3.85266 -3.1385521,-5.82618 l -0.900587,-3.58823 2.831425,-3.79608 c 3.7874555,-5.07786 14.6462168,-6.20285 14.6462168,-1.51738 l 0,1.51162 -4.33495629,-0.95212 -4.33495761,-0.95211 -2.0798947,1.72615 c -1.1439435,0.9494 -2.0798961,3.49353 -2.0798961,5.65364 0,2.16011 0.9359526,4.70424 2.0798961,5.65364 l 2.0798947,1.72615 4.33495761,-0.9521 4.33495629,-0.95213 0,1.38628 c 0,3.52381 -10.1309963,4.18636 -13.4385027,0.87885 z m 17.7150709,-0.61307 -2.8510455,-2.85105 0,-4.76839 0,-4.76839 2.6069104,-2.35922 c 1.4338041,-1.29758 4.5946731,-2.35923 7.0241491,-2.35923 l 4.417239,0 2.95451,3.75605 c 1.624982,2.06583 2.95451,4.866 2.95451,6.22261 0,1.35662 -1.329528,4.15679 -2.95451,6.22261 l -2.95451,3.75605 -4.173104,0 -4.173104,0 z m 11.119077,-1.71063 c 3.97182,-3.97182 1.11885,-12.5446 -4.174743,-12.5446 -3.241867,0 -6.944334,3.80018 -6.944334,7.12761 0,5.61196 7.345519,9.19055 11.119077,5.41699 z m 8.838243,-5.53578 0,-10.09746 1.781903,0.57139 c 0.980047,0.31427 3.064874,2.93193 4.632949,5.81703 3.550236,6.53209 3.752289,6.52028 7.669084,-0.44874 1.762616,-3.13615 3.805205,-5.70209 4.539064,-5.70209 l 1.334318,0 0,9.97866 0,9.97866 -1.425523,0 -1.425523,0 -0.06301,-6.77123 -0.06301,-6.77124 -2.822107,5.34572 c -1.552138,2.94014 -3.432915,5.34571 -4.17949,5.34571 -0.746575,0 -2.627353,-2.40557 -4.179505,-5.34571 l -2.822107,-5.34572 -0.06301,6.77124 -0.06301,6.77123 -1.425523,0 -1.425523,0 0,-10.09745 z m 24.233886,0.11875 0,-9.97866 2.109318,0 c 1.160119,0 3.442623,2.61352 5.072238,5.80782 l 2.962934,5.80784 1.902004,-1.57852 c 1.046091,-0.86819 2.690318,-3.48172 3.653829,-5.80784 0.963511,-2.32611 2.636247,-4.2293 3.717179,-4.2293 l 1.965339,0 0,9.97866 0,9.97866 -1.347418,0 c -0.741072,0 -1.546165,-3.04705 -1.789074,-6.77123 l -0.441655,-6.77124 -2.751516,5.34571 c -1.513335,2.94014 -3.295837,5.34571 -3.9611,5.34571 -0.665263,0 -2.631272,-2.40557 -4.368928,-5.34571 l -3.159343,-5.34567 -0.434485,6.77124 c -0.238975,3.72418 -1.040831,6.77123 -1.781903,6.77123 l -1.347419,0 0,-9.97866 z m 27.370037,8.26803 -1.710627,-1.71062 0,-8.26804 0,-8.26803 1.351024,0 c 0.743068,0 1.544925,3.30172 1.781904,7.33718 l 0.430878,7.33717 2.578158,1.57235 2.578158,1.57234 2.054791,-2.76713 2.054791,-2.76712 0,-6.1424 0,-6.14239 1.425523,0 1.425526,0 0,7.73855 0,7.73855 -2.240113,2.24011 c -2.650987,2.65099 -9.308022,2.95147 -11.730013,0.52948 z m 18.246694,-8.26803 0,-9.97866 1.336942,0 c 0.73533,0 3.46164,2.96748 6.05848,6.5944 l 4.72153,6.5944 0.43448,-6.5944 c 0.23898,-3.62692 1.04083,-6.5944 1.7819,-6.5944 l 1.34742,0 0,9.97866 c 0,11.76026 -0.73112,12.10692 -7.21906,3.42287 l -4.89788,-6.55581 -0.43449,6.55581 c -0.23897,3.60573 -1.04083,6.55583 -1.7819,6.55583 l -1.347422,0 0,-9.97866 z m 19.957322,0 0,-9.97866 2.13829,0 2.13828,0 0,9.97866 0,9.97866 -2.13828,0 -2.13829,0 z m 12.82971,1.42552 0,-8.55314 -3.56381,0 c -1.96009,0 -3.56381,-0.64148 -3.56381,-1.42552 l 0,-1.42552 9.94205,0 9.94206,0 2.30008,4.44786 2.30007,4.44786 2.7049,-4.44786 c 1.48771,-2.44628 3.35583,-4.44782 4.15138,-4.44782 2.15109,0 1.72943,1.53442 -2.15452,7.84038 -1.9316,3.13615 -3.51529,7.14543 -3.51931,8.90952 -0.004,1.76408 -0.64879,3.20742 -1.43283,3.20742 -0.78403,0 -1.42791,-1.76408 -1.43085,-3.92018 -0.003,-2.15611 -1.27647,-6.00502 -2.83009,-8.55314 l -2.82475,-4.63295 -3.58477,0 -3.58476,0 0,8.55314 0,8.55313 -1.42552,0 -1.42552,0 0,-8.55313 z m -119.426731,-25.02743 -3.168238,-2.21913 0,-8.47229 0,-8.47231 1.425522,0 1.425523,0 0,6.29826 c 0,3.46405 0.389367,7.31296 0.865278,8.55313 l 0.865278,2.25488 3.258774,0 3.258773,0 0.865278,-2.25488 c 0.475911,-1.24017 0.865278,-5.08908 0.865278,-8.55313 l 0,-6.29826 1.425523,0 1.425523,0 0,8.47231 0,8.47229 -3.168239,2.21913 c -1.742516,1.2205 -3.844991,2.21911 -4.672136,2.21911 -0.827146,0 -2.929621,-0.99861 -4.672137,-2.21911 z m 20.709269,1.23645 c -1.372066,-0.35854 -2.494665,-1.55106 -2.494665,-2.65003 l 0,-1.99813 4.103681,0.82074 4.103681,0.82074 0.883525,-1.42959 0.883539,-1.42957 -4.98722,-2.94253 c -5.466638,-3.22539 -6.2188,-5.88 -2.67123,-9.42757 2.64423,-2.64424 7.846277,-2.3795 8.777727,0.44672 l 0.625605,1.89821 -3.32985,-0.47269 -3.32985,-0.47267 -0.432846,2.16653 -0.43286,2.16654 4.317895,1.62982 4.317908,1.62982 0,2.87306 c 0,3.23175 -3.606031,7.4393 -6.160297,7.1879 -0.924038,-0.0909 -2.802677,-0.45873 -4.174743,-0.8173 z m 66.559271,-1.11029 c -2.952101,-2.23286 -2.223916,-2.63789 4.004111,-2.22724 l 3.92019,0.25849 -0.009,-1.88933 c -0.004,-1.03915 -1.92942,-2.98211 -4.27657,-4.31771 l -4.268022,-2.42836 0,-2.8672 c 0,-3.48212 4.774632,-6.30503 8.606982,-5.08869 3.46868,1.10092 3.70545,3.81832 0.30254,3.47216 -7.23095,-0.73554 -8.43766,2.24453 -1.84015,4.54443 l 4.21832,1.47051 0.95209,2.9998 0.95211,2.99978 -3.19006,2.58316 c -3.86564,3.13019 -5.75216,3.22885 -9.372991,0.4902 z m 17.106281,0 c -2.9521,-2.23286 -2.22392,-2.63789 4.0041,-2.22724 l 3.92019,0.25849 -0.009,-1.88933 c -0.004,-1.03915 -1.92942,-2.98211 -4.27657,-4.31771 l -4.26801,-2.42836 0,-2.8672 c 0,-3.48212 4.77463,-6.30503 8.60697,-5.08869 3.46869,1.10092 3.70545,3.81832 0.30254,3.47216 -7.23095,-0.73554 -8.43765,2.24453 -1.84015,4.54443 l 4.21832,1.47051 0.9521,2.9998 0.9521,2.99978 -3.19006,2.58316 c -3.86563,3.13019 -5.75216,3.22885 -9.37298,0.4902 z m 24.67418,0.5416 -2.49466,-1.44136 0,-3.40884 c 0,-1.87486 0.66757,-3.82143 1.48351,-4.32571 0.81593,-0.50428 1.1149,-2.07825 0.66437,-3.49772 l -0.81914,-2.58088 2.28849,-2.28849 c 2.87269,-2.87269 5.49526,-2.91153 7.81554,-0.11575 2.18671,2.63483 0.61512,4.74327 -1.76298,2.36517 -2.43847,-2.43847 -3.9677,-2.07492 -3.9677,0.94324 0,1.44656 1.37668,3.85213 3.05931,5.34571 l 3.05931,2.7156 0.62329,-1.7819 c 0.34281,-0.98005 1.28613,-1.7819 2.09627,-1.7819 l 1.47299,0 -0.81936,3.13324 c -0.45065,1.72329 -0.12673,3.96776 0.71969,4.9877 l 1.53907,1.85445 -3.38063,-0.24527 c -1.85934,-0.13486 -4.66358,0.16182 -6.23166,0.65939 -1.56807,0.49758 -3.97364,0.25606 -5.34571,-0.53668 z m 5.21673,-5.71877 c -2.53153,-2.79732 -4.86035,-2.40413 -4.86035,0.8206 0,2.2305 2.72168,3.48864 5.40726,2.4996 l 1.84343,-0.67891 z m -157.101882,-3.69684 0.423356,-9.70312 5.5070395,0.17691 c 6.7406213,0.21653 7.738597,1.68323 7.5053986,11.03044 l -0.1827335,7.32445 -6.8382083,0.43722 -6.8382073,0.43722 z m 11.1147765,4.70462 c 0,-1.8678 -2.8942374,-3.71632 -5.8186802,-3.71632 -0.7199132,0 -1.3089335,1.28297 -1.3089335,2.85105 l 0,2.85104 3.5638069,0 3.5638068,0 z m -1.4255227,-8.55313 c 0,-1.09218 -1.0146928,-2.37515 -2.2548734,-2.85105 -3.2707122,-1.25509 -3.4472176,-1.15342 -3.4472176,1.98577 l 0,2.85104 2.8510455,0 2.8510455,0 z m 49.8932972,3.41129 0,-9.97866 1.425523,0 1.425522,0 0,9.97866 0,9.97866 -1.425522,0 -1.425523,0 z m 10.033428,-0.35638 0.05474,-10.33504 6.330761,7.12761 6.330775,7.12761 0.02936,-6.77123 0.02922,-6.77123 1.425522,0 1.425523,0 0,9.97866 0,9.97866 -1.36022,0 c -0.748128,0 -3.634812,-2.97893 -6.414852,-6.61985 l -5.054633,-6.61984 0,6.61984 0,6.61985 -1.425522,0 -1.425523,0 0.05474,-10.33504 z m 22.753595,0.35638 0,-9.97866 5.617957,0 c 3.089877,0 6.014423,0.64148 6.498986,1.42552 l 0.881019,1.42552 -5.073453,0 -5.073464,0 0,2.85105 0,2.85104 3.563807,0 c 1.960094,0 3.563807,0.64149 3.563807,1.42553 0,0.78404 -1.603713,1.42552 -3.563807,1.42552 l -3.563807,0 0,2.85105 0,2.85104 4.192434,0 c 2.30584,0 4.588901,0.64149 5.073464,1.42552 l 0.881019,1.42553 -6.498975,0 -6.498987,0 z m 114.041818,-54.16986 0,-42.76568 4.70423,0 c 5.24571,0 8.12548,2.12511 8.12548,5.99613 l 0,2.57488 5.91598,-4.2855 5.91597,-4.28551 9.00241,0 9.00242,0 4.89141,4.29471 c 2.69027,2.3621 5.94829,6.93613 7.24003,10.16452 l 2.34863,5.86981 0.0242,11.0556 0.0242,11.0556 -2.30102,5.50842 c -4.68196,11.20813 -13.89147,17.62998 -25.26875,17.62005 l -6.10426,-0.006 -4.63295,-2.82476 -4.63295,-2.82476 0,12.80875 0,12.80874 -7.12761,0 -7.12761,0 0,-42.76567 z m 36.0554,8.53084 c 2.00907,-1.58034 4.40985,-5.16708 5.33509,-7.97054 l 1.68221,-5.0972 -0.55256,-9.77907 -0.55256,-9.77908 -3.41324,-3.63322 -3.41325,-3.63323 -6.05699,0 -6.05698,0 -4.38594,3.69052 -4.38595,3.69054 0.0218,14.48488 c 0.0114,7.96668 0.49312,15.1812 1.06914,16.03223 1.9257,2.84512 6.70072,4.78041 11.90288,4.82416 l 5.15346,0.0433 3.65286,-2.87334 z m -95.58399,11.43417 c -2.5553,-1.55798 -5.92069,-4.92337 -7.47867,-7.47866 l -2.83268,-4.64598 -0.006,-25.30302 -0.006,-25.30303 6.41486,0 6.41485,0 0.0341,19.60094 c 0.0502,28.9078 2.03898,34.56892 12.14458,34.56892 l 4.50605,0 4.84377,-3.26235 4.84375,-3.26234 0.39085,-23.82259 0.39085,-23.82258 7.09315,0 7.09314,0 0,32.15623 0,32.15622 -6.00166,-0.43835 -6.00168,-0.43834 -0.83044,-3.54944 -0.83044,-3.54944 -1.10498,1.78791 c -0.60774,0.98335 -3.60185,3.0617 -6.65357,4.61857 l -5.54863,2.83068 -6.11526,-0.006 -6.11527,-0.006 -4.64598,-2.83269 z m 132.67761,0.0633 c -5.77297,-3.52007 -7.57497,-6.93973 -7.57497,-14.37505 l 0,-5.93836 4.708,-4.708 4.70802,-4.70802 7.66767,-2.27704 c 4.21721,-1.25238 10.84313,-2.27706 14.72424,-2.27706 l 7.05658,0 -0.77964,-5.81274 c -0.42882,-3.19699 -1.89568,-7.0459 -3.25969,-8.55314 l -2.48004,-2.74039 -5.83753,0.006 -5.83753,0.006 -4.6674,2.84571 c -5.98797,3.65087 -8.19506,3.58575 -10.93252,-0.32252 -3.18421,-4.54611 -3.00261,-4.8779 5.26488,-9.61926 l 7.484,-4.29202 9.75871,-0.0128 9.75872,-0.0128 4.00576,2.36627 c 2.20317,1.30144 5.3492,4.75658 6.99117,7.67808 l 2.98542,5.31182 0,24.39617 0,24.39618 -4.96217,0 -4.96218,0 -0.91103,-3.62988 -0.91104,-3.62988 -2.37572,2.14999 c -3.9675,3.59053 -12.52557,6.53559 -18.97548,6.52996 l -6.10426,-0.006 -4.54197,-2.76944 z m 26.51416,-11.15685 3.68722,-2.74158 0.43835,-5.91596 0.43835,-5.91597 -4.0998,0 c -2.2549,0 -7.41264,0.98381 -11.46166,2.18624 l -7.36186,2.18624 -1.45001,2.70938 c -2.08744,3.90041 -1.8241,5.37376 1.56653,8.7644 l 3.01654,3.01653 5.76956,-0.77386 c 3.17326,-0.42562 7.42881,-2.00756 9.45678,-3.51542 z m -306.363978,-32.53631 0,-45.047704 23.877506,0.542982 23.877508,0.542967 6.487283,2.958801 c 9.47036,4.319365 16.391287,11.030741 20.848612,20.217354 l 3.929938,8.09963 -0.01,12.82971 -0.01,12.8297 -3.343792,7.52594 -3.343792,7.52595 -6.942281,6.24171 -6.942296,6.24172 -6.660527,2.26946 -6.659358,2.26948 -22.554423,0 -22.554421,0 z m 41.311608,32.09093 7.239403,-1.55256 4.297452,-3.61608 c 2.363603,-1.98884 5.697815,-6.2617 7.40934,-9.49523 l 3.111874,-5.87914 0.0029,-10.69143 0.0029,-10.69142 -3.052057,-6.66763 -3.051944,-6.66763 -6.074424,-4.02379 -6.073012,-4.023784 -14.721645,-0.486132 -14.7216442,-0.486146 0,32.916792 0,32.91677 9.1957332,0 c 5.057655,0 12.453452,-0.69867 16.435124,-1.55258 z m 49.921849,-19.11749 0,-32.07426 4.704225,0 c 5.557515,0 8.12548,2.14951 8.12548,6.80145 l 0,3.3802 4.801277,-5.09083 4.801269,-5.09082 7.39378,0 7.39378,0 -0.43449,6.77123 -0.43448,6.77123 -6.92407,0.0402 -6.92406,0.0402 -4.123743,4.61528 -4.123737,4.61525 0,20.6476 0,20.64758 -7.127617,0 -7.127614,0 0,-32.07425 z m 248.040961,-14.25523 0,-46.329488 7.12761,0 7.12762,0 0,46.329488 0,46.32948 -7.12762,0 -7.12761,0 z"
       id="path4394"
       inkscape:connector-curvature="0"
       sodipodi:nodetypes="ccsscccccccccccsscsscccccsscscccsscccccccscssssscsccscccssccsccccccccscccccccccccsscccsscccssscsscccccsscsscccssscccssccccsscsssccccssssccsssscccccccssscccccccccsscssscccsscssscsscccscccsscccccccccccssccsscsscsscssccccccccccccccsscccccssscscscccccccccscccccsscccsscccccssssscccccssscccccccsssssccccsssscccssssccccsssscccssscssccssssscsscscccssssscsccssccccssscccsssscccscccccccccccccccccccsscccccccccsscccccssscccssccccccsscccccsscccscccccccccccsccccccccccssccccscccccsscccccccccccccssccccccscccsscsscccssscccsscccccccsccccscccsscsscssccccssccccccccccccscsscccccccccccssccsscccccccccccccccccccccccccc" />
  </g>
  <path
     style="fill:#000000"
     d=""
     id="path4138"
     inkscape:connector-curvature="0" />
</svg>
