<?xml version="1.0" encoding="utf-8"?>
<!-- Generator: Adobe Illustrator 16.0.4, SVG Export Plug-In . SVG Version: 6.00 Build 0)  -->
<!DOCTYPE svg PUBLIC "-//W3C//DTD SVG 1.1//EN" "http://www.w3.org/Graphics/SVG/1.1/DTD/svg11.dtd">
<svg version="1.1" id="Ebene_1" xmlns="http://www.w3.org/2000/svg" xmlns:xlink="http://www.w3.org/1999/xlink" x="0px" y="0px"
	 width="300.001px" height="279.345px" viewBox="0 0 300.001 279.345" enable-background="new 0 0 300.001 279.345"
	 xml:space="preserve">
<path fill="#4DA6DE" d="M46.375,201.38"/>
<path fill="#4DA6DE" d="M119.734,148.838c1.261-3.215,1.895-6.765,1.895-10.646c0-3.885-0.634-7.432-1.895-10.648
	c-1.262-3.213-3.039-5.975-5.331-8.277c-2.293-2.307-5.047-4.096-8.264-5.371c-3.211-1.273-6.781-1.91-10.715-1.91H75.628v52.411
	h19.797c3.934,0,7.504-0.637,10.715-1.91c3.217-1.275,5.971-3.062,8.264-5.371C116.695,154.809,118.473,152.049,119.734,148.838z
	 M111.709,146.324c-0.812,2.391-1.973,4.418-3.489,6.076c-1.517,1.664-3.359,2.932-5.515,3.805c-2.163,0.875-4.587,1.312-7.28,1.312
	h-11.25v-38.651h11.25c2.693,0,5.117,0.441,7.28,1.326c2.155,0.887,3.998,2.154,5.515,3.803c1.517,1.654,2.677,3.676,3.489,6.078
	c0.816,2.402,1.22,5.109,1.22,8.119C112.929,141.226,112.525,143.935,111.709,146.324z M149.981,133.569l0.544-5.898
	c-0.563-0.361-1.191-0.637-1.896-0.816c-0.705-0.184-1.457-0.271-2.257-0.271c-2.304,0-4.282,0.67-5.93,2.018
	c-1.653,1.346-3.057,3.197-4.224,5.551l-0.475-4.842c-0.118-0.75-0.337-1.279-0.65-1.58c-0.32-0.305-0.889-0.459-1.712-0.459h-4.55
	v37.126h7.825v-23.077c0.438-1.113,0.906-2.109,1.417-2.984c0.509-0.871,1.102-1.613,1.764-2.219
	c0.669-0.605,1.422-1.066,2.258-1.385c0.84-0.312,1.799-0.471,2.896-0.471c0.752,0,1.468,0.064,2.145,0.201
	c0.68,0.131,1.201,0.199,1.562,0.199c0.345,0,0.616-0.08,0.824-0.236C149.726,134.267,149.88,133.979,149.981,133.569z
	 M177.217,161.703c0.859-0.682,1.683-1.436,2.46-2.256l0.579,3.455c0.29,0.994,0.959,1.494,2.002,1.494h4.732v-37.126h-7.824v27.081
	c-1.31,1.379-2.714,2.467-4.206,3.254c-1.492,0.791-3.098,1.184-4.821,1.184c-2.351,0-4.105-0.691-5.261-2.076
	c-1.148-1.381-1.729-3.32-1.729-5.822v-23.62h-7.826v23.62c0,2.088,0.268,4.002,0.806,5.734c0.533,1.734,1.328,3.221,2.383,4.459
	s2.357,2.193,3.915,2.875c1.552,0.678,3.347,1.02,5.384,1.02c1.263,0,2.442-0.137,3.549-0.404c1.102-0.268,2.139-0.643,3.109-1.123
	C175.44,162.965,176.358,162.381,177.217,161.703z M203.943,132.659l-0.651-3.895c-0.295-0.996-0.971-1.494-2.038-1.494h-4.731
	v49.462h7.826v-15.76c1.236,1.24,2.61,2.209,4.127,2.912c1.517,0.701,3.366,1.053,5.551,1.053c2.475,0,4.698-0.488,6.659-1.469
	c1.966-0.982,3.642-2.344,5.023-4.08c1.384-1.73,2.446-3.785,3.186-6.148c0.74-2.367,1.108-4.92,1.108-7.662
	c0-3.056-0.331-5.771-1-8.134c-0.664-2.365-1.607-4.35-2.822-5.949c-1.214-1.602-2.664-2.822-4.364-3.658
	c-1.701-0.838-3.591-1.254-5.681-1.254c-2.618,0-4.918,0.555-6.896,1.672S205.497,130.839,203.943,132.659z M208.368,134.171
	c1.44-0.863,3.158-1.293,5.149-1.293c1.309,0,2.487,0.23,3.529,0.691c1.043,0.461,1.932,1.201,2.66,2.221
	c0.724,1.02,1.285,2.334,1.669,3.947c0.394,1.613,0.588,3.562,0.588,5.841c0,4.416-0.859,7.738-2.57,9.973
	c-1.706,2.232-4.096,3.352-7.15,3.352c-1.575,0-3.016-0.289-4.312-0.857c-1.298-0.572-2.495-1.561-3.583-2.969v-17.212
	C205.585,136.261,206.924,135.032,208.368,134.171z M237.976,162.486c0.947,0.836,2.068,1.461,3.371,1.875
	c1.296,0.41,2.695,0.617,4.2,0.617c1.36,0,2.606-0.117,3.731-0.346c1.126-0.23,2.185-0.578,3.169-1.037
	c0.979-0.461,1.932-1.025,2.854-1.697c0.919-0.664,1.855-1.422,2.803-2.271l0.764,3.02c0.268,0.705,0.593,1.174,0.982,1.402
	c0.387,0.229,0.961,0.348,1.712,0.348h3.489V140.81c0-2.109-0.297-4.031-0.889-5.766c-0.598-1.736-1.457-3.234-2.583-4.496
	c-1.129-1.264-2.522-2.24-4.186-2.93c-1.66-0.689-3.562-1.035-5.694-1.035c-5.799,0-10.799,1.949-14.997,5.857l1.421,2.547
	c0.242,0.416,0.55,0.758,0.93,1.039c0.373,0.279,0.829,0.418,1.362,0.418c0.657,0,1.273-0.189,1.854-0.566
	c0.586-0.375,1.249-0.781,2.002-1.217c0.752-0.438,1.641-0.844,2.66-1.221c1.02-0.375,2.281-0.562,3.785-0.562
	c2.203,0,3.878,0.656,5.022,1.965c1.138,1.311,1.706,3.299,1.706,5.967v2.475c-4.217,0.1-7.766,0.498-10.645,1.2
	c-2.873,0.707-5.188,1.6-6.948,2.678c-1.761,1.08-3.021,2.301-3.786,3.658c-0.764,1.357-1.148,2.752-1.148,4.186
	c0,1.676,0.273,3.127,0.818,4.365C236.286,160.609,237.034,161.646,237.976,162.486z M243.165,152.129
	c0.521-0.752,1.374-1.398,2.564-1.945c1.189-0.549,2.742-0.994,4.656-1.346c1.92-0.352,4.271-0.578,7.061-0.672v6.875
	c-1.381,1.459-2.807,2.564-4.275,3.33c-1.464,0.762-3.219,1.146-5.256,1.146c-0.805,0-1.533-0.092-2.203-0.273
	s-1.25-0.473-1.748-0.873c-0.497-0.4-0.887-0.91-1.166-1.529c-0.278-0.619-0.415-1.363-0.415-2.234
	C242.383,153.709,242.643,152.883,243.165,152.129z M274.334,110.53v53.866h7.826V110.53H274.334z M82.647,182.758
	c0.173-0.219,0.303-0.455,0.389-0.709c0.086-0.252,0.13-0.52,0.13-0.795c0-0.455-0.077-0.865-0.228-1.23
	c-0.152-0.359-0.39-0.668-0.709-0.92c-0.323-0.25-0.734-0.443-1.232-0.582c-0.499-0.135-1.094-0.201-1.785-0.201h-3.584v11.236
	h3.969c0.627,0,1.186-0.076,1.679-0.229c0.491-0.154,0.906-0.375,1.242-0.656c0.338-0.281,0.595-0.619,0.769-1.012
	c0.176-0.391,0.264-0.824,0.264-1.303c0-0.699-0.208-1.264-0.624-1.695c-0.415-0.434-1.037-0.729-1.862-0.883
	c0.355-0.111,0.665-0.252,0.93-0.428C82.257,183.174,82.476,182.979,82.647,182.758z M81.433,184.943
	c0.412,0.338,0.619,0.795,0.619,1.375c0,0.301-0.047,0.572-0.141,0.818c-0.094,0.25-0.242,0.465-0.443,0.646
	c-0.201,0.178-0.459,0.32-0.773,0.42c-0.313,0.1-0.688,0.148-1.121,0.148h-2.432v-3.916h2.432
	C80.398,184.436,81.019,184.605,81.433,184.943z M81.511,182.213c-0.101,0.236-0.253,0.443-0.459,0.609
	c-0.207,0.168-0.469,0.297-0.783,0.391c-0.317,0.094-0.689,0.141-1.119,0.141h-2.008v-3.834h2.07c0.836,0,1.453,0.152,1.852,0.457
	c0.396,0.307,0.597,0.793,0.597,1.455C81.66,181.717,81.61,181.975,81.511,182.213z M87.117,178.32v6.832
	c0,0.648,0.104,1.248,0.31,1.803c0.207,0.555,0.504,1.033,0.892,1.438c0.386,0.404,0.856,0.725,1.411,0.953
	c0.555,0.232,1.176,0.348,1.867,0.348c0.69,0,1.311-0.115,1.865-0.348c0.555-0.229,1.023-0.549,1.408-0.953
	c0.384-0.404,0.681-0.883,0.886-1.438c0.207-0.555,0.312-1.154,0.312-1.803v-6.832h-1.516v6.832c0,0.469-0.066,0.9-0.198,1.293
	c-0.135,0.393-0.327,0.727-0.581,1.012c-0.253,0.281-0.562,0.502-0.93,0.658c-0.366,0.158-0.781,0.236-1.246,0.236
	c-0.467,0-0.883-0.082-1.251-0.24c-0.37-0.158-0.68-0.381-0.933-0.662c-0.256-0.283-0.447-0.619-0.583-1.014
	c-0.132-0.393-0.198-0.824-0.198-1.293v-6.822H87.117z M104.62,187.854c-0.196,0.178-0.436,0.32-0.717,0.42
	s-0.604,0.148-0.965,0.148c-0.288,0-0.546-0.029-0.776-0.082c-0.231-0.055-0.436-0.125-0.617-0.207
	c-0.179-0.086-0.341-0.178-0.481-0.277s-0.267-0.189-0.375-0.275c-0.11-0.082-0.209-0.152-0.297-0.205
	c-0.085-0.055-0.162-0.082-0.23-0.082c-0.072,0-0.141,0.018-0.2,0.059c-0.061,0.039-0.11,0.086-0.151,0.145l-0.439,0.721
	c0.422,0.449,0.934,0.807,1.529,1.07s1.26,0.396,1.992,0.396c0.595,0,1.127-0.092,1.596-0.273c0.468-0.184,0.862-0.434,1.185-0.754
	c0.321-0.318,0.566-0.695,0.733-1.125c0.167-0.432,0.251-0.893,0.251-1.385c0-0.465-0.078-0.857-0.231-1.176
	c-0.154-0.32-0.359-0.588-0.612-0.807c-0.253-0.221-0.541-0.402-0.862-0.547c-0.322-0.143-0.651-0.271-0.988-0.387
	c-0.338-0.117-0.666-0.229-0.988-0.334c-0.321-0.105-0.61-0.234-0.863-0.383c-0.253-0.146-0.457-0.322-0.611-0.527
	c-0.154-0.207-0.231-0.467-0.231-0.779c0-0.246,0.044-0.477,0.134-0.688c0.088-0.213,0.221-0.396,0.396-0.555
	c0.175-0.154,0.392-0.277,0.651-0.371c0.258-0.092,0.558-0.139,0.898-0.139c0.359,0,0.668,0.047,0.92,0.135
	c0.254,0.088,0.471,0.188,0.651,0.293c0.182,0.109,0.331,0.205,0.452,0.297c0.12,0.088,0.225,0.133,0.312,0.133
	c0.079,0,0.146-0.021,0.2-0.059c0.056-0.039,0.106-0.1,0.153-0.178l0.369-0.721c-0.393-0.379-0.846-0.666-1.361-0.863
	c-0.516-0.199-1.085-0.299-1.715-0.299c-0.559,0-1.054,0.086-1.485,0.258c-0.431,0.174-0.795,0.402-1.09,0.693
	c-0.296,0.287-0.521,0.615-0.675,0.984c-0.153,0.373-0.231,0.758-0.231,1.154c0,0.498,0.078,0.914,0.231,1.252
	c0.154,0.338,0.357,0.619,0.609,0.842c0.249,0.227,0.538,0.408,0.862,0.549c0.322,0.143,0.654,0.268,0.988,0.375
	c0.335,0.105,0.663,0.211,0.987,0.311c0.324,0.104,0.611,0.229,0.863,0.373c0.25,0.15,0.453,0.328,0.607,0.545
	c0.154,0.219,0.232,0.496,0.232,0.836c0,0.309-0.053,0.59-0.159,0.84C104.967,187.457,104.817,187.672,104.62,187.854z
	 M111.809,178.32h-1.522v11.236h1.522V178.32z M125.275,178.32h-1.335v7.961c0,0.113,0.005,0.234,0.012,0.363
	c0.009,0.129,0.018,0.262,0.029,0.396l-6.503-8.463c-0.041-0.053-0.081-0.098-0.117-0.129c-0.037-0.035-0.073-0.062-0.11-0.08
	c-0.036-0.018-0.078-0.031-0.125-0.037c-0.048-0.01-0.105-0.012-0.173-0.012h-0.784v11.236h1.333v-8.008
	c0-0.107-0.003-0.225-0.007-0.352c-0.005-0.125-0.014-0.252-0.025-0.385l6.503,8.473c0.078,0.1,0.157,0.17,0.239,0.211
	c0.08,0.041,0.182,0.061,0.302,0.061h0.762V178.32z M136.562,179.559v-1.238h-6.927v11.236h6.927l0.007-1.236h-5.411v-3.838h4.376
	v-1.191h-4.376v-3.732H136.562z M144.518,187.854c-0.196,0.178-0.435,0.32-0.717,0.42s-0.603,0.148-0.966,0.148
	c-0.287,0-0.545-0.029-0.775-0.082c-0.231-0.055-0.436-0.125-0.616-0.207c-0.181-0.086-0.342-0.178-0.482-0.277
	s-0.266-0.189-0.375-0.275c-0.11-0.082-0.208-0.152-0.295-0.205c-0.087-0.055-0.165-0.082-0.231-0.082
	c-0.074,0-0.142,0.018-0.201,0.059c-0.061,0.039-0.11,0.086-0.151,0.145l-0.44,0.721c0.423,0.449,0.935,0.807,1.53,1.07
	c0.597,0.264,1.26,0.396,1.991,0.396c0.596,0,1.129-0.092,1.596-0.273c0.469-0.184,0.863-0.434,1.186-0.754
	c0.321-0.318,0.566-0.695,0.733-1.125c0.167-0.432,0.251-0.893,0.251-1.385c0-0.465-0.076-0.857-0.232-1.176
	c-0.153-0.32-0.357-0.588-0.611-0.807c-0.254-0.221-0.541-0.402-0.862-0.547c-0.321-0.143-0.651-0.271-0.988-0.387
	c-0.337-0.117-0.666-0.229-0.987-0.334c-0.322-0.105-0.61-0.234-0.863-0.383c-0.254-0.146-0.458-0.322-0.612-0.527
	c-0.153-0.207-0.231-0.467-0.231-0.779c0-0.246,0.044-0.477,0.133-0.688c0.089-0.213,0.222-0.396,0.396-0.555
	c0.175-0.154,0.392-0.277,0.651-0.371c0.26-0.092,0.558-0.139,0.899-0.139c0.359,0,0.667,0.047,0.919,0.135
	c0.254,0.088,0.471,0.188,0.651,0.293c0.182,0.109,0.33,0.205,0.451,0.297c0.121,0.088,0.225,0.133,0.312,0.133
	c0.08,0,0.147-0.021,0.201-0.059c0.055-0.039,0.105-0.1,0.154-0.178l0.368-0.721c-0.394-0.379-0.847-0.666-1.361-0.863
	c-0.515-0.199-1.087-0.299-1.714-0.299c-0.56,0-1.055,0.086-1.486,0.258c-0.432,0.174-0.795,0.402-1.09,0.693
	c-0.296,0.287-0.521,0.615-0.674,0.984c-0.154,0.373-0.232,0.758-0.232,1.154c0,0.498,0.078,0.914,0.232,1.252
	c0.153,0.338,0.355,0.619,0.608,0.842c0.249,0.227,0.538,0.408,0.862,0.549c0.322,0.143,0.654,0.268,0.988,0.375
	c0.334,0.105,0.663,0.211,0.987,0.311c0.325,0.104,0.611,0.229,0.863,0.373c0.25,0.15,0.454,0.328,0.607,0.545
	c0.154,0.219,0.231,0.496,0.231,0.836c0,0.309-0.053,0.59-0.156,0.84C144.864,187.457,144.714,187.672,144.518,187.854z
	 M155.569,188.656c0.322-0.318,0.567-0.695,0.734-1.125c0.167-0.432,0.249-0.893,0.249-1.385c0-0.465-0.076-0.857-0.229-1.176
	c-0.154-0.32-0.359-0.588-0.612-0.807c-0.253-0.221-0.541-0.402-0.862-0.547c-0.322-0.143-0.65-0.271-0.988-0.387
	c-0.338-0.117-0.666-0.229-0.988-0.334c-0.321-0.105-0.61-0.234-0.863-0.383c-0.255-0.146-0.459-0.322-0.611-0.527
	c-0.153-0.207-0.232-0.467-0.232-0.779c0-0.246,0.045-0.477,0.135-0.688c0.088-0.213,0.22-0.396,0.396-0.555
	c0.175-0.154,0.392-0.277,0.651-0.371c0.258-0.092,0.558-0.139,0.897-0.139c0.361,0,0.669,0.047,0.921,0.135
	c0.254,0.088,0.471,0.188,0.651,0.293c0.181,0.109,0.33,0.205,0.452,0.297c0.12,0.088,0.225,0.133,0.312,0.133
	c0.079,0,0.145-0.021,0.201-0.059c0.054-0.039,0.105-0.1,0.152-0.178l0.369-0.721c-0.393-0.379-0.846-0.666-1.361-0.863
	c-0.516-0.199-1.086-0.299-1.714-0.299c-0.56,0-1.055,0.086-1.486,0.258c-0.431,0.174-0.795,0.402-1.091,0.693
	c-0.295,0.287-0.521,0.615-0.674,0.984c-0.153,0.373-0.232,0.758-0.232,1.154c0,0.498,0.079,0.914,0.232,1.252
	s0.357,0.619,0.607,0.842c0.251,0.227,0.539,0.408,0.864,0.549c0.322,0.143,0.652,0.268,0.987,0.375
	c0.334,0.105,0.664,0.211,0.988,0.311c0.324,0.104,0.611,0.229,0.862,0.373c0.251,0.15,0.453,0.328,0.608,0.545
	c0.154,0.219,0.23,0.496,0.23,0.836c0,0.309-0.051,0.59-0.157,0.84c-0.104,0.252-0.253,0.467-0.45,0.648
	c-0.196,0.178-0.436,0.32-0.717,0.42c-0.283,0.1-0.604,0.148-0.965,0.148c-0.288,0-0.547-0.029-0.777-0.082
	c-0.23-0.055-0.435-0.125-0.616-0.207c-0.181-0.086-0.341-0.178-0.481-0.277c-0.143-0.1-0.267-0.189-0.377-0.275
	c-0.109-0.082-0.208-0.152-0.295-0.205c-0.085-0.055-0.162-0.082-0.229-0.082c-0.073,0-0.142,0.018-0.201,0.059
	c-0.061,0.039-0.111,0.086-0.152,0.145l-0.438,0.721c0.422,0.449,0.933,0.807,1.529,1.07c0.596,0.264,1.26,0.396,1.992,0.396
	c0.595,0,1.127-0.092,1.596-0.273C154.854,189.227,155.248,188.977,155.569,188.656z M164.972,189.473
	c0.4,0.141,0.81,0.211,1.228,0.211c0.771,0,1.473-0.139,2.113-0.42c0.642-0.277,1.207-0.656,1.698-1.131l1.137,1.143
	c0.11,0.115,0.213,0.191,0.307,0.229c0.096,0.035,0.217,0.053,0.37,0.053h1.356l-2.354-2.391c0.346-0.506,0.609-1.049,0.793-1.627
	c0.182-0.578,0.277-1.168,0.281-1.77h-0.854c-0.095,0-0.167,0.029-0.22,0.088c-0.054,0.057-0.083,0.135-0.095,0.234
	c-0.036,0.383-0.114,0.764-0.234,1.148c-0.12,0.387-0.28,0.754-0.478,1.111l-3.233-3.285c-0.198-0.199-0.368-0.391-0.509-0.566
	c-0.143-0.18-0.258-0.352-0.351-0.525c-0.089-0.172-0.157-0.344-0.198-0.51c-0.042-0.168-0.062-0.344-0.062-0.525
	c0-0.234,0.038-0.455,0.117-0.656c0.078-0.201,0.192-0.377,0.34-0.525c0.15-0.146,0.33-0.264,0.543-0.35
	c0.211-0.082,0.447-0.123,0.709-0.123c0.24,0,0.451,0.037,0.632,0.117c0.181,0.076,0.334,0.176,0.462,0.297
	c0.127,0.119,0.233,0.254,0.315,0.4c0.079,0.148,0.138,0.289,0.176,0.424c0.084,0.205,0.211,0.283,0.384,0.242l0.87-0.172
	c-0.021-0.314-0.103-0.617-0.246-0.906c-0.144-0.291-0.339-0.543-0.585-0.764c-0.245-0.219-0.539-0.396-0.877-0.531
	c-0.342-0.131-0.717-0.199-1.131-0.199c-0.465,0-0.885,0.07-1.259,0.217c-0.374,0.145-0.69,0.338-0.953,0.588
	c-0.26,0.248-0.461,0.539-0.601,0.873c-0.138,0.336-0.206,0.693-0.206,1.078c0,0.406,0.074,0.801,0.228,1.178
	c0.152,0.379,0.387,0.771,0.705,1.18c-0.356,0.158-0.682,0.346-0.979,0.566c-0.3,0.219-0.558,0.467-0.777,0.744
	c-0.22,0.275-0.392,0.578-0.514,0.906c-0.123,0.326-0.184,0.672-0.184,1.039c0,0.486,0.096,0.924,0.289,1.309
	c0.192,0.387,0.449,0.715,0.769,0.986C164.214,189.127,164.573,189.332,164.972,189.473z M164.683,185.088
	c0.28-0.418,0.695-0.771,1.251-1.066l3.316,3.342c-0.349,0.361-0.76,0.648-1.227,0.863c-0.469,0.213-0.994,0.318-1.581,0.318
	c-0.271,0-0.538-0.043-0.799-0.135c-0.263-0.09-0.494-0.225-0.699-0.404c-0.203-0.18-0.367-0.396-0.495-0.654
	c-0.124-0.262-0.188-0.561-0.188-0.898C164.262,185.961,164.401,185.506,164.683,185.088z M74.938,202.768
	c0,0.848,0.127,1.623,0.384,2.33c0.255,0.705,0.616,1.309,1.083,1.812c0.465,0.506,1.026,0.898,1.687,1.178
	c0.658,0.281,1.39,0.418,2.195,0.418c0.93,0,1.725-0.148,2.38-0.445c0.657-0.299,1.215-0.713,1.674-1.246l-0.603-0.652
	c-0.063-0.066-0.137-0.102-0.22-0.102c-0.088,0-0.178,0.037-0.268,0.117c-0.191,0.18-0.389,0.332-0.584,0.461
	c-0.196,0.125-0.407,0.23-0.635,0.316c-0.228,0.082-0.477,0.145-0.746,0.186c-0.269,0.037-0.57,0.059-0.905,0.059
	c-0.548,0-1.061-0.1-1.534-0.301c-0.473-0.199-0.883-0.486-1.23-0.865c-0.348-0.381-0.623-0.842-0.822-1.391
	c-0.203-0.549-0.304-1.174-0.304-1.875c0-0.691,0.098-1.311,0.292-1.861c0.191-0.549,0.463-1.016,0.809-1.396
	c0.35-0.381,0.764-0.672,1.244-0.873c0.481-0.199,1.012-0.303,1.593-0.303c0.481,0,0.888,0.053,1.216,0.156
	c0.33,0.1,0.604,0.213,0.823,0.34c0.22,0.125,0.397,0.236,0.534,0.34c0.136,0.104,0.25,0.152,0.344,0.152
	c0.086,0,0.151-0.018,0.201-0.049c0.05-0.035,0.09-0.076,0.122-0.129l0.501-0.699c-0.465-0.439-1.003-0.789-1.614-1.045
	c-0.613-0.254-1.318-0.383-2.118-0.383c-0.815,0-1.562,0.141-2.235,0.418c-0.676,0.279-1.254,0.676-1.737,1.18
	c-0.484,0.508-0.859,1.115-1.127,1.822C75.071,201.145,74.938,201.918,74.938,202.768z M85.693,200.449
	c-0.267,0.703-0.399,1.475-0.399,2.318c0,0.842,0.133,1.613,0.399,2.318c0.267,0.701,0.644,1.307,1.129,1.812
	c0.487,0.508,1.069,0.9,1.75,1.184c0.679,0.277,1.432,0.418,2.257,0.418c0.827,0,1.581-0.141,2.265-0.418
	c0.681-0.283,1.266-0.676,1.753-1.184c0.485-0.506,0.862-1.111,1.129-1.812c0.268-0.705,0.399-1.477,0.399-2.318
	c0-0.844-0.132-1.615-0.399-2.318c-0.267-0.705-0.644-1.312-1.129-1.818c-0.487-0.512-1.072-0.906-1.753-1.191
	c-0.684-0.281-1.438-0.422-2.265-0.422c-0.825,0-1.578,0.141-2.257,0.422c-0.681,0.285-1.263,0.68-1.75,1.191
	C86.337,199.137,85.96,199.744,85.693,200.449z M87.128,200.906c0.188-0.549,0.457-1.012,0.805-1.391
	c0.346-0.379,0.768-0.672,1.259-0.873c0.491-0.205,1.036-0.309,1.638-0.309c0.607,0,1.156,0.104,1.647,0.309
	c0.491,0.201,0.911,0.494,1.255,0.873c0.347,0.379,0.613,0.842,0.8,1.391c0.189,0.551,0.283,1.17,0.283,1.861
	c0,0.689-0.094,1.309-0.283,1.854c-0.187,0.547-0.453,1.008-0.8,1.389c-0.344,0.379-0.764,0.67-1.255,0.869
	c-0.491,0.203-1.04,0.303-1.647,0.303c-0.602,0-1.146-0.1-1.638-0.303c-0.491-0.199-0.913-0.49-1.259-0.869
	c-0.348-0.381-0.616-0.842-0.805-1.389c-0.188-0.545-0.282-1.164-0.282-1.854C86.846,202.076,86.939,201.457,87.128,200.906z
	 M109.013,200.123v8.258h1.334v-11.238h-1.123c-0.135,0-0.241,0.012-0.316,0.039c-0.076,0.025-0.145,0.1-0.208,0.219l-3.812,6.914
	c-0.068,0.123-0.131,0.256-0.189,0.395c-0.058,0.139-0.111,0.277-0.164,0.418c-0.053-0.141-0.109-0.279-0.169-0.414
	c-0.061-0.137-0.122-0.268-0.184-0.393l-3.882-6.92c-0.069-0.119-0.14-0.193-0.213-0.219c-0.073-0.027-0.178-0.039-0.314-0.039
	h-1.121v11.238h1.334v-8.258c0-0.234-0.016-0.492-0.047-0.768l3.937,7.057c0.12,0.234,0.304,0.355,0.549,0.355h0.22
	c0.246,0,0.429-0.121,0.549-0.355l3.858-7.025c-0.01,0.129-0.019,0.258-0.026,0.385
	C109.018,199.895,109.013,200.016,109.013,200.123z M123.683,200.123v8.258h1.332v-11.238h-1.121c-0.137,0-0.242,0.012-0.316,0.039
	c-0.078,0.025-0.146,0.1-0.209,0.219l-3.812,6.914c-0.067,0.123-0.132,0.256-0.189,0.395c-0.057,0.139-0.112,0.277-0.164,0.418
	c-0.053-0.141-0.108-0.279-0.169-0.414c-0.06-0.137-0.121-0.268-0.185-0.393l-3.881-6.92c-0.068-0.119-0.14-0.193-0.212-0.219
	c-0.074-0.027-0.18-0.039-0.314-0.039h-1.122v11.238h1.333v-8.258c0-0.234-0.015-0.492-0.047-0.768l3.937,7.057
	c0.12,0.234,0.306,0.355,0.55,0.355h0.219c0.246,0,0.43-0.121,0.551-0.355l3.858-7.025c-0.011,0.129-0.02,0.258-0.026,0.385
	C123.686,199.895,123.683,200.016,123.683,200.123z M127.849,197.143v6.834c0,0.648,0.104,1.25,0.309,1.803
	c0.207,0.555,0.504,1.031,0.892,1.438s0.858,0.725,1.412,0.953c0.554,0.23,1.175,0.346,1.866,0.346c0.69,0,1.312-0.115,1.867-0.346
	c0.553-0.229,1.023-0.547,1.407-0.953c0.385-0.406,0.68-0.883,0.886-1.438c0.207-0.553,0.311-1.154,0.311-1.803v-6.834h-1.514v6.834
	c0,0.469-0.066,0.9-0.2,1.293s-0.327,0.729-0.581,1.012c-0.253,0.281-0.562,0.5-0.93,0.658c-0.365,0.156-0.781,0.236-1.246,0.236
	c-0.467,0-0.882-0.08-1.251-0.242c-0.368-0.158-0.68-0.377-0.933-0.662c-0.254-0.281-0.447-0.619-0.581-1.01
	c-0.134-0.393-0.2-0.824-0.2-1.295v-6.824H127.849z M147.677,208.318c0.079,0.041,0.181,0.062,0.303,0.062h0.761v-11.238h-1.335
	v7.963c0,0.115,0.005,0.234,0.012,0.363c0.008,0.129,0.018,0.26,0.028,0.395l-6.503-8.463c-0.041-0.053-0.08-0.094-0.117-0.129
	c-0.035-0.035-0.072-0.059-0.11-0.078c-0.035-0.018-0.078-0.029-0.125-0.039c-0.047-0.008-0.104-0.012-0.171-0.012h-0.787v11.238
	h1.335v-8.006c0-0.111-0.003-0.229-0.007-0.354c-0.006-0.127-0.016-0.254-0.025-0.385l6.503,8.471
	C147.516,208.207,147.595,208.277,147.677,208.318z M151.715,208.381h1.521v-11.238h-1.521V208.381z M160.173,208.381v-9.959h3.639
	v-1.279h-8.8v1.279h3.647v9.959H160.173z M169.798,208.381v-4.475l4.117-6.764h-1.34c-0.131,0-0.238,0.035-0.321,0.109
	c-0.084,0.072-0.149,0.154-0.196,0.242l-2.565,4.371c-0.089,0.182-0.169,0.352-0.242,0.514c-0.073,0.158-0.14,0.32-0.196,0.482
	c-0.058-0.162-0.125-0.324-0.204-0.482c-0.078-0.162-0.164-0.332-0.259-0.514l-2.573-4.371c-0.058-0.105-0.125-0.188-0.202-0.254
	c-0.08-0.064-0.187-0.098-0.321-0.098h-1.335l4.118,6.764v4.475H169.798z M199.435,208.018c1.848-0.73,3.432-1.764,4.751-3.094
	c1.315-1.33,2.338-2.932,3.058-4.803c0.725-1.869,1.086-3.945,1.086-6.225c0-2.283-0.361-4.357-1.086-6.229
	c-0.72-1.871-1.742-3.475-3.058-4.812c-1.319-1.338-2.903-2.373-4.751-3.104c-1.849-0.729-3.892-1.094-6.132-1.094h-11.369v30.453
	h11.369C195.543,209.111,197.586,208.748,199.435,208.018z M186.06,181.996h7.243c1.644,0,3.135,0.27,4.466,0.807
	c1.332,0.539,2.461,1.316,3.4,2.338c0.933,1.02,1.657,2.268,2.164,3.74c0.514,1.471,0.77,3.145,0.77,5.016
	c0,1.867-0.256,3.539-0.77,5.016c-0.507,1.473-1.231,2.717-2.164,3.729c-0.939,1.014-2.068,1.791-3.4,2.326
	c-1.331,0.539-2.822,0.809-4.466,0.809h-7.243V181.996z M221.846,178.658l-12.175,30.453h3.184c0.358,0,0.654-0.1,0.896-0.299
	c0.24-0.197,0.403-0.426,0.489-0.678l2.846-7.354h13.666l2.847,7.354c0.114,0.281,0.283,0.516,0.508,0.701
	c0.229,0.182,0.526,0.275,0.896,0.275h3.186l-12.174-30.453H221.846z M218.234,197.807l4.778-12.371
	c0.312-0.762,0.618-1.719,0.916-2.867c0.139,0.553,0.287,1.072,0.448,1.561c0.154,0.488,0.302,0.92,0.446,1.287l4.778,12.391
	H218.234z M257.311,178.957c-0.229,0.195-0.404,0.416-0.534,0.656l-6.947,11.84c-0.238,0.494-0.46,0.959-0.656,1.391
	c-0.201,0.434-0.377,0.867-0.531,1.307c-0.158-0.439-0.341-0.873-0.555-1.307c-0.213-0.432-0.447-0.896-0.701-1.391l-6.973-11.84
	c-0.155-0.281-0.337-0.514-0.548-0.689c-0.216-0.176-0.505-0.266-0.873-0.266h-3.612l11.156,18.318v12.135h4.123v-12.135
	l11.154-18.318h-3.633C257.825,178.658,257.535,178.758,257.311,178.957z M279.786,194.492c-0.688-0.596-1.467-1.09-2.34-1.479
	c-0.869-0.391-1.763-0.74-2.678-1.051c-0.911-0.314-1.805-0.615-2.676-0.906c-0.871-0.287-1.654-0.631-2.338-1.029
	c-0.689-0.396-1.242-0.875-1.657-1.436c-0.416-0.561-0.628-1.264-0.628-2.115c0-0.664,0.121-1.283,0.363-1.859
	c0.235-0.572,0.598-1.07,1.071-1.496c0.476-0.424,1.062-0.76,1.765-1.008c0.703-0.25,1.51-0.373,2.434-0.373
	c0.977,0,1.81,0.121,2.493,0.361c0.689,0.24,1.277,0.508,1.766,0.797c0.491,0.291,0.895,0.555,1.225,0.799
	c0.324,0.24,0.607,0.357,0.845,0.357c0.216,0,0.396-0.051,0.544-0.158c0.149-0.105,0.288-0.264,0.417-0.479l0.999-1.957
	c-1.066-1.018-2.293-1.797-3.688-2.334c-1.396-0.539-2.942-0.807-4.645-0.807c-1.515,0-2.856,0.23-4.025,0.701
	c-1.169,0.467-2.154,1.088-2.954,1.867c-0.802,0.781-1.411,1.674-1.825,2.68c-0.418,1.006-0.631,2.047-0.631,3.123
	c0,1.346,0.213,2.477,0.631,3.389c0.414,0.914,0.965,1.678,1.645,2.285c0.678,0.609,1.46,1.105,2.338,1.486
	c0.876,0.381,1.771,0.719,2.679,1.01c0.906,0.289,1.798,0.574,2.677,0.85c0.88,0.277,1.657,0.613,2.339,1.01
	c0.678,0.398,1.227,0.889,1.646,1.479c0.418,0.586,0.625,1.34,0.625,2.262c0,0.836-0.141,1.592-0.424,2.275
	c-0.283,0.68-0.689,1.266-1.222,1.754s-1.178,0.867-1.944,1.137c-0.764,0.266-1.635,0.4-2.614,0.4c-0.778,0-1.481-0.072-2.103-0.223
	c-0.627-0.146-1.18-0.332-1.67-0.561c-0.489-0.227-0.925-0.477-1.305-0.742c-0.385-0.271-0.723-0.518-1.021-0.746
	c-0.296-0.227-0.562-0.414-0.799-0.562c-0.23-0.148-0.441-0.223-0.626-0.223c-0.195,0-0.379,0.053-0.543,0.16
	c-0.161,0.105-0.299,0.234-0.411,0.391l-1.188,1.957c1.143,1.215,2.525,2.184,4.142,2.898c1.616,0.717,3.415,1.074,5.396,1.074
	c1.615,0,3.059-0.25,4.324-0.744c1.268-0.496,2.336-1.178,3.209-2.039c0.873-0.865,1.534-1.883,1.989-3.049
	c0.453-1.17,0.676-2.422,0.676-3.752c0-1.26-0.205-2.326-0.623-3.188C281.025,195.814,280.471,195.086,279.786,194.492z
	 M158.028,248.283c-0.207-0.629-0.564-1.037-1.075-1.223c-0.51-0.186-1.171-0.146-1.98,0.119l-1.499,0.492l1.31,3.99l1.446-0.475
	c0.408-0.135,0.751-0.303,1.027-0.506c0.278-0.203,0.491-0.432,0.64-0.684c0.147-0.254,0.232-0.525,0.253-0.816
	C158.17,248.893,158.129,248.592,158.028,248.283z M139.33,254.064c0.355-0.385,0.499-0.863,0.43-1.434
	c-0.079-0.652-0.327-1.104-0.742-1.354s-1.022-0.326-1.823-0.229l-1.986,0.24l0.455,3.734l1.908-0.232
	C138.388,254.691,138.974,254.449,139.33,254.064z M198.981,229.457l-7.117-0.687c0,0-0.205-0.021-0.385-0.029
	c-0.812-0.045-1.626-0.09-2.435-0.177c-0.395-0.043-0.79-0.049-1.186-0.083c-1.204-0.112-2.409-0.224-3.614-0.317
	c-0.851-0.065-1.707-0.069-2.553-0.17c-0.572-0.063-1.146-0.076-1.721-0.132c-1.104-0.106-2.211-0.206-3.318-0.293
	c-0.809-0.065-1.621-0.128-2.434-0.146c-0.355-0.01-0.562-0.285-0.828-0.444c0.014-0.066,0.024-0.133,0.025-0.199
	c0.002-0.084-0.005-0.171-0.012-0.255c-0.006-0.049-0.025-0.091-0.078-0.112c-0.01-0.005-0.02-0.021-0.02-0.033
	c-0.004-0.034-0.002-0.066-0.008-0.1c-0.004-0.057-0.023-0.113-0.021-0.169c0.006-0.186-0.03-0.366-0.062-0.546
	c-0.026-0.142-0.058-0.282-0.052-0.428c0.005-0.11,0.005-0.222,0.009-0.333c0-0.044,0-0.09,0-0.134c0-0.064,0.015-0.123,0.049-0.182
	c0.047-0.092,0.09-0.188,0.111-0.289c0.021-0.082,0.006-0.171,0.006-0.256c-0.001-0.046-0.006-0.091-0.006-0.138
	c-0.002-0.043,0.003-0.087-0.005-0.128c-0.036-0.181-0.07-0.363-0.15-0.531c-0.033-0.072-0.066-0.142-0.117-0.201
	c-0.015-0.018-0.017-0.047-0.02-0.072c-0.008-0.044-0.012-0.091-0.014-0.139c-0.001-0.008-0.001-0.018-0.003-0.025
	c-0.011-0.071-0.032-0.137-0.07-0.195c-0.021-0.031-0.054-0.057-0.062-0.088c-0.023-0.087-0.04-0.172-0.082-0.255
	c-0.025-0.05-0.032-0.106-0.055-0.157c-0.013-0.032-0.037-0.067-0.064-0.083c-0.05-0.029-0.107-0.039-0.159-0.062
	c-0.036-0.015-0.072-0.036-0.106-0.056c-0.009-0.006-0.013-0.017-0.013-0.024c0-0.042,0.002-0.087,0.002-0.129
	c0-0.031,0.002-0.064,0.002-0.095c0-0.026-0.012-0.053-0.004-0.076c0.013-0.042,0.038-0.084,0.053-0.126
	c0.013-0.036,0.042-0.065,0.038-0.108c-0.012-0.187-0.072-0.357-0.152-0.523c-0.018-0.036-0.048-0.063-0.07-0.103
	c-0.006-0.006-0.006-0.019-0.002-0.026c0.02-0.043,0.044-0.083,0.064-0.125c0.017-0.037,0.044-0.039,0.08-0.026
	c0.015,0.002,0.042,0,0.051-0.013c0.014-0.014,0.018-0.039,0.02-0.062c0.002-0.011-0.008-0.023-0.01-0.036
	c-0.008-0.095-0.056-0.14-0.152-0.145c-0.013-0.001-0.031-0.008-0.037-0.019c-0.063-0.062-0.139-0.066-0.209-0.019
	c-0.01,0.006-0.029,0.01-0.043,0.004c-0.066-0.023-0.148,0.005-0.186,0.065c-0.012,0.017-0.024,0.028-0.037,0.041
	c-0.029,0.026-0.016,0.057-0.004,0.083c0.009,0.026,0.029,0.039,0.059,0.026c0.027-0.012,0.043,0.007,0.051,0.027
	c0.022,0.062,0.043,0.124,0.061,0.186c0.005,0.018-0.004,0.042-0.016,0.054c-0.073,0.064-0.125,0.143-0.156,0.23
	c-0.025,0.062-0.042,0.124-0.084,0.175c-0.015,0.024-0.023,0.053-0.036,0.081c-0.021,0.056-0.019,0.063,0.039,0.073
	c0,0,0.009,0.003,0.016,0.006c-0.007,0.012-0.012,0.021-0.019,0.026c-0.021,0.028-0.048,0.055-0.067,0.084
	c-0.04,0.064-0.03,0.122,0.02,0.179c0.017,0.023,0.026,0.051,0.034,0.079c0.011,0.052-0.001,0.11,0.043,0.158
	c0.013,0.016-0.009,0.051-0.032,0.043c-0.042-0.017-0.077,0.009-0.115,0.017c-0.025,0.005-0.039,0.021-0.043,0.048
	c-0.002,0.012-0.012,0.026-0.022,0.032c-0.021,0.016-0.049,0.022-0.081,0.038l-0.081,0.051c-0.004,0.029-0.053,0.077-0.072,0.082
	c-0.041,0.007-0.084,0.011-0.122,0.025c-0.069,0.025-0.094,0.084-0.071,0.161c-0.047-0.025-0.076,0.003-0.107,0.022
	c-0.023,0.012-0.034,0.032-0.03,0.06c0,0.009-0.009,0.022-0.017,0.033c-0.011,0.008-0.022,0.012-0.034,0.02
	c-0.196,0.113-0.238,0.341-0.087,0.505c0.011,0.012,0.012,0.034,0.011,0.05c-0.015,0.06-0.035,0.116-0.046,0.177
	c-0.047,0.211-0.084,0.425-0.102,0.641c-0.008,0.052-0.011,0.104-0.049,0.151c-0.006,0.007-0.008,0.02-0.008,0.031
	c0.002,0.035,0.002,0.069,0.012,0.1c0.02,0.06,0,0.112-0.018,0.166c-0.003,0.012-0.003,0.029,0.004,0.035
	c0.018,0.025,0.03,0.047,0.02,0.079c-0.006,0.018,0.004,0.039,0.008,0.058c0.012,0.053,0.031,0.104,0.035,0.157
	c0.014,0.104,0.015,0.213,0.023,0.32c0.015,0.157,0.031,0.316,0.083,0.469c0.012,0.03,0.012,0.063,0.014,0.096
	c0.004,0.021-0.006,0.028-0.026,0.03c-0.056,0.007-0.111,0.014-0.168,0.021c-0.022,0.004-0.035,0.014-0.035,0.039
	c-0.006,0.057-0.012,0.115-0.015,0.171c-0.006,0.089-0.01,0.176-0.014,0.266c0,0.019,0.002,0.039,0.01,0.055
	c0.009,0.024,0.001,0.038-0.019,0.048c-0.023,0.016-0.047,0.03-0.07,0.046c-0.05,0.036-0.098,0.075-0.15,0.108
	c-0.068,0.045-0.101,0.1-0.098,0.182c0.006,0.083-0.007,0.168-0.014,0.251c0,0.013-0.012,0.036-0.022,0.038
	c-0.034,0.011-0.044,0.037-0.051,0.067c-0.009,0.041-0.019,0.083-0.029,0.123c-0.052,0.008-0.116,0.011-0.201,0.014
	c-0.995,0.045-1.981-0.119-2.97-0.181c-1.227-0.077-2.447-0.219-3.67-0.328c-0.612-0.056-1.227-0.093-1.839-0.151
	c-1.441-0.137-2.878-0.292-4.319-0.424c-1.185-0.106-2.371-0.18-3.558-0.281c-0.273-0.023-0.543-0.098-0.814-0.147
	c-0.197-0.438-0.59-0.312-0.93-0.312c-8.784,0-17.571,0.007-26.358,0.007c-6.44,0-12.88-0.007-19.322-0.007
	c-0.338,0-0.725-0.119-0.936,0.312c-0.028,0.056-0.182,0.049-0.276,0.072c-0.449,0.11-0.909,0.078-1.364,0.121
	c-1.221,0.111-2.444,0.23-3.668,0.339c-0.652,0.059-1.309,0.077-1.957,0.15c-1.635,0.189-3.275,0.326-4.914,0.454
	c-0.691,0.054-1.381,0.146-2.07,0.204c-0.751,0.064-1.503,0.113-2.257,0.167c-0.197,0.013-0.41,0.024-0.552-0.153
	c-0.326-0.412-0.697-0.802-0.633-1.399c0.028-0.235,0.037-0.476,0.055-0.709c0.047-0.611,0.162-1.239-0.047-1.832
	c-0.133-0.37-0.109-0.79-0.36-1.122c-0.049-0.062-0.047-0.156-0.006-0.229c0.182-0.301,0.364-0.6,0.12-0.951
	c0.124-0.2,0.078-0.346-0.146-0.411c-0.238-0.074-0.393,0.013-0.539,0.236c-0.163,0.248-0.175,0.525-0.18,0.802
	c-0.007,0.216-0.06,0.384-0.272,0.482c-0.238,0.111-0.361,0.295-0.331,0.57c0.015,0.143-0.054,0.271-0.103,0.399
	c-0.205,0.525-0.215,1.078,0.038,1.562c0.167,0.32,0.195,0.626,0.067,0.883c-0.213,0.431-0.241,0.91-0.461,1.332
	c-0.162,0.311-0.354,0.571-0.719,0.641c-0.128,0.021-0.226,0.06-0.28,0.182c-0.107,0.246-0.342,0.267-0.556,0.269
	c-0.694,0.012-1.384,0.094-2.077,0.149c-1.146,0.086-2.293,0.166-3.44,0.257c-1.266,0.104-2.527,0.226-3.793,0.322
	c-0.85,0.064-1.705,0.073-2.553,0.165c-0.536,0.057-1.068,0.077-1.601,0.123c-1.128,0.096-2.253,0.212-3.376,0.303l-7.521,0.958
	c-2.218-2.083-4.335-4.267-6.349-6.54c-5.762-6.562-10.713-13.834-14.488-21.688c-3.79-7.838-6.464-16.207-7.888-24.777
	c-1.458-8.572-1.53-17.334-0.482-25.926c0.538-4.299,1.4-8.556,2.579-12.718c1.135-4.051,2.705-8.268,4.474-12.172
	c3.612-7.844,8.495-14.963,14.636-20.93c6.119-6,13.371-10.91,21.244-15.234c7.835-4.395,16.292-8.24,24.461-13.566
	c2.029-1.355,4.039-2.783,5.965-4.389c0.952-0.773,2-1.756,2.889-2.59l1.211-1.23l0.303-0.307l0.412-0.436l0.633-0.719
	c3.381-3.834,6.128-8.361,7.849-13.162c1.801-4.789,2.613-9.775,2.944-14.66c0.082-1.254,0.125-2.502,0.138-3.746
	c1.416,1.506,2.826,3.016,4.29,4.468c1.995,1.989,3.95,4.02,5.994,5.948c2.024,1.952,4.04,3.912,6.11,5.805
	c4.097,3.84,8.265,7.578,12.517,11.233l6.364,5.458c2.147,1.793,4.206,3.652,6.274,5.484c2.09,1.812,4.087,3.748,6.126,5.633
	c2.04,1.885,4.06,3.789,6.03,5.734l5.964,5.805l5.813,6.018l2.89,2.996l2.814,3.074c1.892,2.039,3.703,4.148,5.548,6.232
	c3.626,4.221,7.156,8.537,10.395,13.082c-2.885-4.779-6.088-9.369-9.399-13.875c-1.691-2.225-3.334-4.498-5.117-6.652l-2.636-3.27
	l-2.748-3.182l-5.481-6.322l-5.7-6.182c-1.885-2.086-3.838-4.096-5.809-6.084c-1.97-1.99-3.891-4.023-5.932-5.961l-12.024-11.661
	c-1.989-1.937-3.952-3.897-5.911-5.866c-1.979-1.945-3.923-3.924-5.854-5.912c-1.951-1.968-3.839-3.991-5.735-6.005
	c-1.917-1.995-3.733-4.075-5.59-6.118c-1.865-2.035-3.606-4.168-5.415-6.244c-1.774-2.102-3.455-4.271-5.208-6.384l-7.549-9.095
	l0.915,11.838c0.683,8.813,0.194,17.723-2.924,25.351c-1.525,3.817-3.775,7.224-6.581,10.198l-0.526,0.559l-0.15,0.154
	c0.027-0.027-0.167,0.171,0.041-0.043l-0.078,0.074l-0.314,0.297l-1.254,1.188c-0.82,0.705-1.477,1.272-2.326,1.934
	c-1.64,1.311-3.413,2.516-5.234,3.678c-7.368,4.605-15.801,8.268-24.127,12.686c-8.324,4.377-16.68,9.59-23.783,16.457
	c-7.129,6.816-12.883,15.098-17.021,23.953c-2.058,4.471-3.749,8.887-5.145,13.689c-1.363,4.684-2.367,9.472-3.008,14.304
	c-1.305,9.668-1.006,19.523,0.65,29.104c1.662,9.582,4.719,18.908,9.004,27.615c4.267,8.719,9.814,16.801,16.395,23.893
	c3.282,3.553,6.781,6.9,10.51,9.965c1.868,1.514,3.469,2.906,5.541,4.408c1.97,1.521,3.969,2.832,5.962,4.188
	c4.06,2.6,8.271,4.945,12.611,7.025c4.357,2.053,8.863,3.764,13.445,5.207c4.597,1.408,9.282,2.484,14.003,3.305
	c4.734,0.764,9.508,1.209,14.284,1.391l3.581,0.025c0.628,0,1.129,0.02,1.859,0l1.725-0.064c2.254-0.049,4.705-0.256,7.111-0.447
	c4.736-0.512,9.431-1.289,14.065-2.354c9.241-2.211,18.239-5.551,26.47-10.285c8.246-4.666,15.667-10.857,21.859-17.793
	c3.106-3.533,5.934-7.285,8.408-11.242c2.425-3.994,4.4-8.199,6.223-12.432c-2.369,3.963-4.907,7.799-7.733,11.379
	C203.435,224.794,201.265,227.188,198.981,229.457z M67.824,234.922c-0.727,0.045-1.457,0.112-2.188,0.19
	c-0.08-0.067-0.16-0.133-0.24-0.2c0.08-0.551,0.308-1.063,0.664-1.5c0.714-0.874,1.904-1.448,3.26-1.448
	c2.017,0,3.664,1.27,3.925,2.912C71.442,234.796,69.639,234.808,67.824,234.922z M160.813,229.838c3.941,0,7.209,2.404,7.873,5.568
	c-0.228-0.027-0.459-0.041-0.686-0.073c-4.848-0.693-9.656-0.704-14.523-0.011c-0.176,0.025-0.354,0.034-0.53,0.057
	C153.625,232.229,156.884,229.838,160.813,229.838z M130.993,233.904c0-0.355,0.031-0.704,0.087-1.044
	c0.003-0.083,0.003-0.164,0.005-0.246c0.003-0.125,0.07-0.254,0.135-0.376c0.894-3.279,4.371-5.726,8.529-5.726
	c4.207,0,7.723,2.505,8.563,5.845c0.101,0.194,0.15,0.396,0.142,0.625c-0.002,0.034-0.002,0.069-0.004,0.104
	c0.034,0.267,0.055,0.541,0.055,0.818v1.665c-1.014-0.035-2.026-0.106-3.032-0.25c-4.796-0.683-9.57-0.686-14.375-0.002
	c-0.034,0.005-0.07,0.007-0.104,0.012V233.904z M96.936,229.957c3.973,0,7.264,2.442,7.89,5.645
	c-1.38,0.009-2.761-0.078-4.118-0.272c-3.844-0.551-7.671-0.66-11.507-0.34C90.104,232.094,93.223,229.957,96.936,229.957z
	 M74.918,234.975c0.117-2.301,2.348-4.139,5.104-4.139c2.829,0,5.124,1.936,5.124,4.323v0.294c-1.29,0.138-2.688,0.202-4.159,0.117
	c-1.296-0.075-2.513-0.223-3.671-0.369C76.516,235.102,75.717,235.036,74.918,234.975z M84.875,253.732l2.183-4.693l-5.331-2.48
	l-2.183,4.693l-1.522-0.707l4.844-10.418l1.523,0.709l-2.139,4.6l5.33,2.479l2.139-4.6l1.517,0.705l-4.845,10.416L84.875,253.732z
	 M97.04,252.686l-4.052-1.35l-1.183,3.553l5.041,1.68l-0.444,1.311l-6.628-2.209l3.631-10.898l6.628,2.207l-0.438,1.314
	l-5.034-1.678l-1.15,3.453l4.051,1.35L97.04,252.686z M100.52,258.908l-1.628-0.416l2.84-11.131l1.628,0.416L100.52,258.908z
	 M114.433,255.734c-0.141,0.848-0.403,1.596-0.785,2.244c-0.382,0.65-0.857,1.184-1.425,1.6c-0.569,0.416-1.215,0.703-1.936,0.863
	c-0.723,0.16-1.497,0.172-2.322,0.033l-4.181-0.699l1.896-11.33l4.181,0.699c0.826,0.139,1.555,0.4,2.185,0.787
	s1.146,0.869,1.548,1.447c0.402,0.58,0.679,1.238,0.828,1.98C114.569,254.1,114.573,254.893,114.433,255.734z M123.945,251.861
	l-5.297-0.307l-0.209,3.635l4.263,0.246l-0.077,1.334l-4.263-0.246l-0.215,3.738l5.306,0.305l-0.088,1.381l-6.974-0.4l0.66-11.469
	l6.974,0.4L123.945,251.861z M123.096,235.324c-4.707-0.672-9.372-0.681-14.076-0.05v-1.057c0-4.081,4.069-7.391,9.087-7.391
	c5.02,0,9.091,3.31,9.091,7.391v1.384C125.829,235.608,124.458,235.519,123.096,235.324z M126.03,261.934l-0.331-11.482l1.671-0.049
	l0.291,10.053l4.778-0.139l0.041,1.432L126.03,261.934z M142.269,258.678c-0.129,0.422-0.343,0.799-0.646,1.131
	s-0.69,0.607-1.164,0.826c-0.475,0.221-1.026,0.367-1.654,0.443l-4.028,0.492l-1.39-11.404l3.647-0.443
	c0.7-0.086,1.31-0.09,1.829-0.014c0.518,0.076,0.952,0.225,1.307,0.445c0.354,0.221,0.629,0.504,0.827,0.854
	c0.199,0.35,0.326,0.758,0.383,1.223c0.033,0.275,0.024,0.545-0.028,0.811c-0.052,0.264-0.15,0.516-0.295,0.756
	c-0.146,0.24-0.337,0.465-0.575,0.67c-0.238,0.207-0.527,0.391-0.866,0.549c1.667,0.131,2.584,0.898,2.756,2.301
	C142.43,257.803,142.396,258.258,142.269,258.678z M145.558,260.1l-2.485-11.215l6.819-1.512l0.3,1.352l-5.181,1.148l0.788,3.553
	l4.169-0.924l0.289,1.305l-4.169,0.924l0.811,3.654l5.188-1.148l0.292,1.352L145.558,260.1z M161.665,255.668
	c-0.283,0.094-0.527,0.047-0.731-0.139l-3.89-2.916c-0.126-0.1-0.247-0.158-0.364-0.18c-0.116-0.02-0.274,0.002-0.474,0.066
	l-1.037,0.34l1.47,4.479l-1.589,0.52l-3.582-10.914l3.089-1.014c0.69-0.227,1.31-0.35,1.856-0.369s1.028,0.051,1.44,0.209
	c0.413,0.16,0.76,0.4,1.039,0.725s0.496,0.719,0.648,1.186c0.125,0.379,0.185,0.756,0.18,1.127
	c-0.004,0.373-0.073,0.727-0.207,1.066c-0.134,0.338-0.328,0.656-0.583,0.953c-0.256,0.297-0.567,0.562-0.938,0.795
	c0.239,0.057,0.466,0.172,0.682,0.342l4.407,3.26L161.665,255.668z M171.715,251.129c-0.497,0.457-1.091,0.846-1.779,1.162
	c-0.826,0.383-1.633,0.598-2.421,0.646c-0.789,0.047-1.526-0.055-2.214-0.309c-0.687-0.25-1.309-0.645-1.865-1.18
	c-0.557-0.537-1.016-1.197-1.379-1.98c-0.365-0.789-0.577-1.568-0.637-2.336c-0.059-0.77,0.032-1.492,0.271-2.172
	c0.24-0.678,0.624-1.297,1.152-1.855s1.196-1.025,2.002-1.398c0.409-0.189,0.803-0.334,1.181-0.432
	c0.378-0.1,0.743-0.158,1.097-0.182c0.353-0.021,0.693-0.012,1.022,0.033s0.65,0.117,0.963,0.221l-0.112,0.898
	c-0.015,0.143-0.07,0.252-0.165,0.332c-0.097,0.08-0.228,0.107-0.394,0.086c-0.157-0.018-0.333-0.037-0.527-0.064
	c-0.194-0.029-0.413-0.035-0.658-0.023c-0.245,0.014-0.519,0.055-0.821,0.125c-0.303,0.068-0.641,0.191-1.017,0.365
	c-0.56,0.258-1.021,0.586-1.386,0.98c-0.366,0.395-0.626,0.842-0.783,1.338c-0.156,0.496-0.207,1.027-0.15,1.6
	c0.057,0.568,0.226,1.16,0.508,1.77c0.296,0.639,0.651,1.168,1.064,1.592c0.414,0.422,0.868,0.732,1.36,0.93
	c0.492,0.199,1.018,0.281,1.575,0.246c0.557-0.035,1.129-0.188,1.713-0.457c0.229-0.107,0.434-0.219,0.619-0.336
	c0.184-0.117,0.355-0.242,0.514-0.375c0.158-0.131,0.305-0.273,0.439-0.424s0.266-0.309,0.392-0.473l-1.012-2.186l-1.511,0.701
	c-0.094,0.043-0.185,0.049-0.271,0.02c-0.087-0.031-0.15-0.09-0.19-0.178l-0.406-0.879l3.205-1.482l1.882,4.064
	C172.634,250.135,172.213,250.672,171.715,251.129z M175.854,235.327c-0.985,0.141-1.988,0.213-2.993,0.247v-0.415
	c0-2.388,2.294-4.323,5.124-4.323c2.687,0,4.868,1.753,5.083,3.974C180.674,234.812,178.272,234.98,175.854,235.327z
	 M193.074,235.562c-0.017,0.016-0.033,0.031-0.051,0.046c-0.187-0.018-0.386-0.035-0.622-0.055
	c-0.072-0.007-0.146-0.014-0.225-0.021c-0.578-0.05-1.146-0.111-1.651-0.185c-1.783-0.261-3.566-0.425-5.353-0.498
	c0.274-1.63,1.918-2.887,3.922-2.887c2.061,0,3.756,1.321,3.96,3.017c0.013,0.112,0.02,0.228,0.02,0.344V235.562z M112.234,252.109
	c-0.271-0.428-0.627-0.777-1.066-1.051s-0.951-0.459-1.534-0.557l-2.524-0.422l-1.441,8.615l2.524,0.424
	c0.583,0.098,1.127,0.088,1.632-0.027c0.505-0.117,0.955-0.33,1.35-0.646c0.395-0.314,0.728-0.725,0.997-1.225
	c0.27-0.502,0.461-1.09,0.574-1.77c0.112-0.674,0.124-1.291,0.031-1.855C112.686,253.031,112.505,252.535,112.234,252.109z
	 M139.99,256.209c-0.425-0.279-1.039-0.369-1.844-0.271l-2.338,0.283l0.464,3.805l2.337-0.285c0.421-0.051,0.774-0.145,1.061-0.281
	c0.287-0.137,0.514-0.305,0.684-0.502c0.168-0.199,0.281-0.424,0.34-0.676c0.059-0.25,0.071-0.52,0.036-0.805
	C140.661,256.908,140.415,256.486,139.99,256.209z"/>
<path fill="#4DA6DE" d="M264.163,135.044c-0.598-1.736-1.457-3.234-2.583-4.496c-1.129-1.264-2.522-2.24-4.186-2.93
	c-1.66-0.689-3.562-1.035-5.694-1.035c-5.799,0-10.799,1.949-14.997,5.857l1.421,2.547c0.242,0.416,0.55,0.758,0.93,1.039
	c0.373,0.279,0.829,0.418,1.362,0.418c0.657,0,1.273-0.189,1.854-0.566c0.586-0.375,1.249-0.781,2.002-1.217
	c0.752-0.438,1.641-0.844,2.66-1.221c1.02-0.375,2.281-0.562,3.785-0.562c2.203,0,3.878,0.656,5.022,1.965
	c1.138,1.311,1.706,3.299,1.706,5.967v2.475c-4.217,0.1-7.766,0.498-10.645,1.2c-2.873,0.707-5.188,1.6-6.948,2.678
	c-1.761,1.08-3.021,2.301-3.786,3.658c-0.764,1.357-1.148,2.752-1.148,4.186c0,1.676,0.273,3.127,0.818,4.365
	c0.549,1.238,1.297,2.275,2.238,3.115c0.947,0.836,2.068,1.461,3.371,1.875c1.296,0.41,2.695,0.617,4.2,0.617
	c1.36,0,2.606-0.117,3.731-0.346c1.126-0.23,2.185-0.578,3.169-1.037c0.979-0.461,1.932-1.025,2.854-1.697
	c0.919-0.664,1.855-1.422,2.803-2.271l0.764,3.02c0.268,0.705,0.593,1.174,0.982,1.402c0.387,0.229,0.961,0.348,1.712,0.348h3.489
	V140.81C265.052,138.7,264.755,136.778,264.163,135.044z M257.446,155.041c-1.381,1.459-2.807,2.564-4.275,3.33
	c-1.464,0.762-3.219,1.146-5.256,1.146c-0.805,0-1.533-0.092-2.203-0.273s-1.25-0.473-1.748-0.873
	c-0.497-0.4-0.887-0.91-1.166-1.529c-0.278-0.619-0.415-1.363-0.415-2.234c0-0.898,0.26-1.725,0.782-2.479
	c0.521-0.752,1.374-1.398,2.564-1.945c1.189-0.549,2.742-0.994,4.656-1.346c1.92-0.352,4.271-0.578,7.061-0.672V155.041z"/>
</svg>

